<mxfile modified="2024-06-07T13:50:10.141Z" host="Electron" agent="Mozilla/5.0 (Windows NT 10.0; Win64; x64) AppleWebKit/537.36 (KHTML, like Gecko) draw.io/24.2.5 Chrome/120.0.6099.109 Electron/28.1.0 Safari/537.36" etag="w7ky0ewVQO32SpKGlJOA" version="24.2.5" type="device">
  <diagram id="gqqeR5Pfv8s0_oegaMLR" name="PÃ¡gina-2">
    <mxGraphModel dx="1562" dy="2086" grid="1" gridSize="10" guides="1" tooltips="1" connect="1" arrows="1" fold="1" page="1" pageScale="1" pageWidth="827" pageHeight="1169" math="0" shadow="0">
      <root>
        <mxCell id="0" />
        <mxCell id="1" parent="0" />
        <mxCell id="qqKRHz-9JzJdadCF8VJw-3" style="edgeStyle=orthogonalEdgeStyle;rounded=0;orthogonalLoop=1;jettySize=auto;html=1;" edge="1" parent="1" source="0LWtqEGLMiINDnaJs90O-1" target="qqKRHz-9JzJdadCF8VJw-4">
          <mxGeometry relative="1" as="geometry">
            <mxPoint x="180" y="-500" as="targetPoint" />
          </mxGeometry>
        </mxCell>
        <mxCell id="0LWtqEGLMiINDnaJs90O-1" value="mobile" style="sketch=0;outlineConnect=0;fontColor=#232F3E;gradientColor=none;fillColor=#879196;strokeColor=none;dashed=0;verticalLabelPosition=bottom;verticalAlign=top;align=center;html=1;fontSize=12;fontStyle=0;aspect=fixed;pointerEvents=1;shape=mxgraph.aws4.mobile_client;" vertex="1" parent="1">
          <mxGeometry x="60" y="-539" width="41" height="78" as="geometry" />
        </mxCell>
        <mxCell id="qqKRHz-9JzJdadCF8VJw-8" style="edgeStyle=orthogonalEdgeStyle;rounded=0;orthogonalLoop=1;jettySize=auto;html=1;" edge="1" parent="1" source="qqKRHz-9JzJdadCF8VJw-4" target="qqKRHz-9JzJdadCF8VJw-7">
          <mxGeometry relative="1" as="geometry" />
        </mxCell>
        <mxCell id="qqKRHz-9JzJdadCF8VJw-4" value="API Gateway" style="sketch=0;outlineConnect=0;fontColor=#232F3E;gradientColor=none;fillColor=#E7157B;strokeColor=none;dashed=0;verticalLabelPosition=bottom;verticalAlign=top;align=center;html=1;fontSize=12;fontStyle=0;aspect=fixed;pointerEvents=1;shape=mxgraph.aws4.endpoint;" vertex="1" parent="1">
          <mxGeometry x="200" y="-535" width="69" height="69" as="geometry" />
        </mxCell>
        <mxCell id="LosIR79AaMui6t7Fk-LA-1" style="edgeStyle=orthogonalEdgeStyle;rounded=0;orthogonalLoop=1;jettySize=auto;html=1;" edge="1" parent="1" source="qqKRHz-9JzJdadCF8VJw-7" target="qqKRHz-9JzJdadCF8VJw-9">
          <mxGeometry relative="1" as="geometry" />
        </mxCell>
        <mxCell id="qqKRHz-9JzJdadCF8VJw-7" value="Load balancer&#xa;NGINX" style="shape=image;verticalLabelPosition=bottom;labelBackgroundColor=default;verticalAlign=top;aspect=fixed;imageAspect=0;image=data:image/png,iVBORw0KGgoAAAANSUhEUgAAAOEAAADhCAMAAAAJbSJIAAAAeFBMVEX///8Ol0gAlEFzuIoAjjEAlUQAkToAkDYAjzMAjS4Akz4AkTn6/fvs9e/L49Py+PQlnFNZrXaAvpTe7eOq0rfF4M7l8elOqW7X6t09o2Iwn1qkz7J4uo4onVW+3MhSq3GPxaBksn6y1r2Ux6U5omBgsHyIwZqm0LO6RLh9AAAHp0lEQVR4nO2d2XajOhBFLRkxCPAQz3bieIid///Da990p21DgVRISMViv/RTE50FOugIuWow6Onp6enp6enp0SSbrWeZ60FYZP4VRFEUfM1dD8QSexEKduf27971YCww20TsH9Fm5npAhhkPE8EeEclw7HpQJtlFnL3Co53rYRljwcKCvjshW7gemhGWq1iUCrw9qvFq6Xp4jcneEkjfz3R8I/56/E5lhb47Mv12PcgGjCZpjb476WTkeqBI8ik4AV+n4zR3PVgM16T4hoDgydX1cLU5yboJ+IyUJ9dD1mK9jepFvRBt166Hrcz4GKhNwGdEcCSykDsH6hPwGR6cXQ9egVtGQuq743+ues5IGPzOVdlrRsJwy1XeLuTKMhIGX3MVlJEw+JirKjISBu9yVU1GQmn0KlfNQ70lmhoy9GXXcfShkpEwpB8+5Kp8ilqiqSEC97nqoJGRMPDk4FTfiduYgM9I7i5Xrb+aLtHUiL7c5CpkRsLgJledY7sT8Bket52r9gaXaGqErM1cdctIbT2g/xDt5ars3fgSTVFj8t7KQm4X2X9DQMgWctVi0vYEfCac2M1Vy0+jGQmDiD8t5irzGQnDLVdZ0mcnI2Gwk6vWW1sZCUNqfIM8v7S2RFNDBBejueqA3sa2Bw8OxvS1kZEwmMpVbWUkDCZyVeGoj180P3jUbkbC0CxXtZ+RMDTIVUfnSzQ1RHzECdz46aBlyA3qDtIReJOIuIuLwPWotQj0Q9WWxhz8i9jqCpzRuoW3m6i7ifNN4T3xSKh7APDN9zf9K1w3Fg8RCrlMwzCUDScwv19D/6/zoW2FIhLD3Wm/n19XUYp+AETE3ub7/e4Y6c4S6wrjz4ePmaNhjHuZhttf09+les+CZYVCvryOsitmTyB+PIM51ltT2VUoWDHC5BttN45ftntXOmOwqzAszWhvmslZFsao8xhYVRgB6eWgJ5EXLrDQuIBNhfCCaajzoMqSTxIaS0ebCiu2ZzcaT0JQ8qhrrKxsKozg7wgZU74J4qPk/8/UH1ObCuOKj3pL5SHysoSXxV4oDKquM0oajVA94ThTONgp3ga6Cgfvam5BWKHi0oSywoGSoZJWmKsYKmmFSoZKW+FgXm+oxBUqGCp1hfWGSl7hYFJjqPQV1hkqfYV1htoBhTWG2gWFg7cqQ+2EwkpD7YbCKkPtiMIcPhvXEYWDNWio5BRCx+pOkKGSU3iBPslChkpO4VBCO3Cf5VempzAEj7iUGyo9hbz4oeUP41JDJaiQRdCRulJDpaiQJdApnlPJwEkqZAH0ReNafFBpKhQCMtRp4Qs2TYWMf0HX/3g1VKIK4TOD49cXP1WF6oZKViFLoCPKL4ZKVyF8aPDZUAkrFFzJUAkrZAI01MejFpQVVhjqw00krRA21Nk/Q6WtEDbU/a8E4gphQz38NVTqCgWHfoB1kd1QWHH47Y+hklfI5AX4S2MuuqGQpQfgT/38tKMDClkAGmrSEYUsgQz1HHVEIZOQoR5lRxRWGWo3FDI5Bf5cBmyvklNYYahJRxSyACoSsC99XxJUyBKoRkBpiUSKCoGfnwCQVFh6KL9TCmFD7YxClqq3CSCqEDbUziiEDbUzCpUNla5CMem6QiY/u66QpUq/n6eskMUqhkpaoZKh0lbI0vqacsQVKhgqcYWM1xoqdYUsrDNU8gpZXFOmk75CllR3P+iAwhpD9VjhUfX/VxuqHwpLKw5slEsN8BU8ityP3+OHJcuvTKNUWPgOjmLvR9UIUbLvctKp+QEb6tSPyh9lH+n16tlBR211isZZVSgKh9Z3mnWjgbMahSOarhQWliZr7YJ9Qdn2W/GYrTOFLHoyi4W6A/4iC/XyvaqEdS9D9hv2sndUyUURbU8PR/yys2YLDdsKmYg33+s8n+2H6MrDIoxX5/0sz5fr+VG74Jt1hfcBRnEchVh9P9eQ/18EcxVthe+NRuoADq8byjlTqrF7R0LnHyFG/hZiLyfSbkJHq8jubQrrChx8+9TOoh5MD3pSpZL1CyUP7r9qoSNRaB0O+CVnVPxUMmy/Ej96A9XRqHeQB/2d6mjc/8l1j646TPTwMtWL2gaG+ls765VXh8Fees17wtvAbD9E//qxmO9p6VdPHSt9SVvsHVuHtd6y660f09Fmf2Af+pPZ7vF8ddxjjpfurBolnzpcyLXUa3304SocpxPtrQok89TFdLTTmxMgaz9X3TJSK+2Of1muWp2OIl5Z7JELsGhxIRcyu32OIdrKVYYyEoasjQaXIhm2OwGfsZ+r2usZD7EXNqdjKExnJAxnaws5HljISBgs5SprGQmDjVwVGW+93YyTNLuQk9JuRsJgMle1kJEwGMtVIm4lI2EYTUzkqvYyEobvxrlKYr51tknDDfLWMxKGBrnKSUbCgM1V5rex7YHZIOdgRTAvGevmqltG8meJpsZaK1e5z0gY1HOVHxkJw0FpIceDg+uB4hlfanOVCC6+LtHUWG+rF3KpZxkJwymEF3Ky7NcoBLkCbw6eeJmRMCw/S6ajCBoe9fGLUeHgUeh1RsKwe8pVMnW2jW2PW676+3bk5o76+MXsGERhGEbBsUsT8JlsNN/NR928fz09PT09PT09PU34D3vxmsiliIlyAAAAAElFTkSuQmCC;" vertex="1" parent="1">
          <mxGeometry x="340" y="-543" width="85" height="85" as="geometry" />
        </mxCell>
        <mxCell id="LosIR79AaMui6t7Fk-LA-3" style="edgeStyle=orthogonalEdgeStyle;rounded=0;orthogonalLoop=1;jettySize=auto;html=1;" edge="1" parent="1" source="qqKRHz-9JzJdadCF8VJw-9" target="LosIR79AaMui6t7Fk-LA-2">
          <mxGeometry relative="1" as="geometry" />
        </mxCell>
        <mxCell id="qqKRHz-9JzJdadCF8VJw-9" value="openshift pod&lt;br&gt;desafio-mobile" style="image;aspect=fixed;html=1;points=[];align=center;fontSize=12;image=img/lib/azure2/containers/Azure_Red_Hat_OpenShift.svg;" vertex="1" parent="1">
          <mxGeometry x="560" y="-534" width="68" height="68" as="geometry" />
        </mxCell>
        <mxCell id="LosIR79AaMui6t7Fk-LA-5" style="edgeStyle=orthogonalEdgeStyle;rounded=0;orthogonalLoop=1;jettySize=auto;html=1;" edge="1" parent="1" source="LosIR79AaMui6t7Fk-LA-2" target="LosIR79AaMui6t7Fk-LA-4">
          <mxGeometry relative="1" as="geometry" />
        </mxCell>
        <mxCell id="GzCfAnAJpdmUNUZnMBMj-1" style="edgeStyle=orthogonalEdgeStyle;rounded=0;orthogonalLoop=1;jettySize=auto;html=1;" edge="1" parent="1" source="LosIR79AaMui6t7Fk-LA-2" target="LosIR79AaMui6t7Fk-LA-6">
          <mxGeometry relative="1" as="geometry" />
        </mxCell>
        <mxCell id="LosIR79AaMui6t7Fk-LA-2" value="openshift pod&lt;br&gt;desafio" style="image;aspect=fixed;html=1;points=[];align=center;fontSize=12;image=img/lib/azure2/containers/Azure_Red_Hat_OpenShift.svg;" vertex="1" parent="1">
          <mxGeometry x="560" y="-390" width="68" height="68" as="geometry" />
        </mxCell>
        <mxCell id="LosIR79AaMui6t7Fk-LA-4" value="DB Postgres" style="image;aspect=fixed;html=1;points=[];align=center;fontSize=12;image=img/lib/azure2/databases/Azure_Database_PostgreSQL_Server.svg;" vertex="1" parent="1">
          <mxGeometry x="570" y="-210" width="48" height="64" as="geometry" />
        </mxCell>
        <mxCell id="LosIR79AaMui6t7Fk-LA-6" value="API Users" style="sketch=0;outlineConnect=0;fontColor=#232F3E;gradientColor=none;fillColor=#E7157B;strokeColor=none;dashed=0;verticalLabelPosition=bottom;verticalAlign=top;align=center;html=1;fontSize=12;fontStyle=0;aspect=fixed;pointerEvents=1;shape=mxgraph.aws4.endpoint;" vertex="1" parent="1">
          <mxGeometry x="740" y="-391" width="70" height="70" as="geometry" />
        </mxCell>
        <mxCell id="rSsuv9EqIID3dA49Rcjv-2" value="Cluster Openshift" style="swimlane;whiteSpace=wrap;html=1;" vertex="1" parent="1">
          <mxGeometry x="482" y="-584" width="224" height="490" as="geometry" />
        </mxCell>
        <mxCell id="_ifwmtqrcZcbokNP98M1-3" value="Grafana" style="shape=image;verticalLabelPosition=bottom;labelBackgroundColor=default;verticalAlign=top;aspect=fixed;imageAspect=0;image=data:image/jpeg,/9j/4AAQSkZJRgABAQAAAQABAAD/4QAqRXhpZgAASUkqAAgAAAABADEBAgAHAAAAGgAAAAAAAABHb29nbGUAAP/bAIQAAwICBwgICAgICAYICAgICAgICAgIBQYFBQYGBgYFBQUFBQUFBgUFBQUFBQUFCgUFBwgJCQkFBQsNCggNBggJCAEDBAQGBQYIBgYKEAgICAgNDQgNDQoICAgICAgICAgICAgICA0ICAgICAgICAgICAgICAgICAgICAgICAgICAgI/8AAEQgDhAOEAwEiAAIRAQMRAf/EAB0AAQACAgMBAQAAAAAAAAAAAAABAgMIBQYHBAn/xAA+EAEAAQMCBQIEBAUCBQQCAwAAAQIDEQQSBQYHITFBUQgTYXEigZGxMlKhwdEUIxczQlNiFRg0khYkcoLh/8QAHAEBAAICAwEAAAAAAAAAAAAAAAYHAQUDBAgC/8QARhEAAgEDAQUEBwYDBwMCBwAAAAECAwQRBQYSITFBMlFhcRMUIkKBkbEjUmKhwdEHM3IVNFOSouHwNUOCJNIWF1Rjc7Lx/9oADAMBAAIRAxEAPwD9UwAAAAAAAAAAAAAAAAAAAAAAAAAAAAAAAAAAAAAAAAAAAAAAAAAAAAAAAAAAAAAAAAAAAAAAAAAAAAAAAAAAAAAAAAAAAAAAAAAAAAAAAAAAAAAAAAAAAAAAAAAAAAAAAAAAAAAAAAAAAAAAAAAAAAAAAAAAAAAAAAAAAAAAAAAAAAAAAAAAAAAAAAAAAAAAAAABEgJRkUmvzntHv4j9QFpqTEuj83dWNJo5imqqmZ+kx2cry3zxptVTFVFynPtmMusrim5uCkt5c1k70rGvGmqzg1B8nh4Z2NKkVfp7rQ7J0SRCQAAAAAAAAAAAAAAAAAAAAAAAAAAAAAAAAAAAAAAAAAAAAAAAAAAAAAAAAAAAAAAAAAAAAAAAAAAAAAAAAAAAAAAAAAAAAAAAAAAAAAAAAAAAAAAAAAAAAAAAAEACtVRVLh+Y+abGltzXerppxEzGcZn2iHxKSim5PCXPuOSnTlUkowW82+CXFs+7iHEaLVM1XKopiO/ft4a4dYPiUpoiqxYnv3jdDzrq/wDEBe1VdVq1MxRmYiY8Y/J4jdvTM5qmZmZ8yrzVdoHLNK34LrLv8i7tndi4w3bi+WZc4w6Luz+xyPGeZdRfqmq5XVOe/mez6uWed9Xpa4rpuVbYnOMz6OAhKDqrNS3k3nvyW27ek4ejcVu4xjCxjw7jcbpH8TdvUxTav4pmO2Z9fzbAaDiNu5TFVuqKo+j8urdyqJiaJmmY9u37Pa+kfxBXtJVTau1TNHaJmU50vaJrFO5490v3Kj2g2IjJSr2HB83D9v2N5IlLrvKXONnV24rt1ROYiZ7w7DErChNTSlF5T5FJ1aUqUnCa3ZJ8U+aLCEvs4gAAAAAAAAAAAAAAAAAAAAAAAAAAAAAAAAAAAAAAAAAAAAAAAAAAAAAAAAAAAAAAAAAAAAAAAAAAAAAAAAAAAAAAAAAAAAAAAAAAAAAAAAAAAAAAAAAAAjIAiqrCKqnA83832tHaqu3JiMR2jPd8TmoJyk8Jc/A5aVKVWShBb0pPCXVsc383WdHaquXaojETiPX6NHesHV69r7tVMVTFuJ7YnthPV/q/e192qIqmLWZxGe2Hl9U+irNZ1l3LdKlwprn+L/Y9DbLbLRsYq4uFvVpLh3QX794qn08/UiCISiRZQJSAKzSTGe3j6pmETADv3TDq7qOH3aad1U2sx69sN4On3UGzrbVNVNUZxGe784JjPafHo7z0w6n3uH3qfxT8uZjtnthKNI1idpJQqPNN/wCn/Yr/AGl2Yp6jB1aK3a6X+f8A3P0YplMOmdPuoNnW2qaqaozjxn6O4xK1qdSNSKlB5TPOVehOhN06i3ZRfFFxEJcp1wAAAAAAAAAAAAAAAAAAAAAAAAAAAAAAAAAAAAAAAAAAAAAAAAAAAAAAAAAAAAAAAAAAAAAAAAAAAAAAAAAAAAAAAAAAAAAAAAAAAAAAAAAAAAAAAArVKZYrtyIiap8RHf7BlLJ8XGeMUWLdV2uYiKYzhpT1y6wVay7VRRMxbiZjEeHdfiN6w5qmxZq7eJx+jWS9ezOfdWuvas5t29J+yu0+9l77HbOKjFXlwvbkvYT91d/mUmr2RTBELQgxboSAAAAISAKzCPPafy+iyJgB37pL1Nu6C/TE1TNEz9cRDe/kzmu3qrVNdFUTMxGcej80Yn9fT6PbPh96tV6S7FmuqZiqcRn0yl2h6q7eao1H7Enw/CytNrtnY3tJ3NFYrQXtJe+l+xvLEpfDw3iNNyimumc7oif1fdlaiaayjzvKLi2nwaJAZPkAAAAAAAAAAAAAAAAAAAAAAAAAAAAAAAAAAAAAAAAAAAAAAAAAAAAAAAAAAAAAAAAAAAAAAAAAAAAAAAAAAAAAAAAAAAAAAAAAAAAAAAAAAACJlKsyArVLyfrv1I/0ViaKZ710zH1jL0bjnHKNPbqrrnERE4/Ts0M6yc/3NXqK4mc0RM479vKN63qCtaO7F+3PgvAneyeivULpTmvsqfGXdJ9EjonGOIVXLlVdUzO6Zn9XwEphUTeXl9T0xGKiklyS4fARCyEvk+gAAAAAAAiUgCkyvZ1E0TFynO6PCJRT5ZMPjz//AKu43J+G7qpTetRbvVfjiMREy2Ft1evv4fmr085lq02qouZmKcx9vL9BOQuZadVYorifSP2Wps/qPp6Xop9qHza7zzttpois7j1imvs6vF90Zdx2lKsSlLitCQAAAAAAAAAAAAAAAAAAAAAAAAAAAAAAAAAAAAAAAAAAAAAAAAAAAAAAAAAAAAAAAAAAAAAAAAAAAAAAAAAAAAAAAAAAAAAAAAAAAAAAAAAAEMc9/wAl6qnHcZ4pTYt1XKp7RmXzJpLL5I+4Rcmori2+HieE/Ezz9FNn5NFWKu+e/dp1qL81TmfLvvWbmWb+rrqir8OZ+3l59MqZ1e7dzcSfRcF5I9T7NaZGwsoR96SzLvy+hGFkRCzSErAAAAAAAAAAAAhFULIkBS5EzERHmG1HwydSIxGmme/hqzRPd2npbzDOk1VNyZxEzH7tppt07a4jNcm8S8iPa9p0b+zqUmstLMP6j9JKJ8MkOu8l8di/YouZ8xH7OfpuR7rshNSipLk1wPKNWnKnNwlzi8PzRkERKX2cIAAAAAAAAAAAAAABGQEiu+DfACwrvhMVAJEZAEgAAAAAAAAAAAAAAAAAAAAAAAAAAAAAAAAAAAAAAAAAAAAAAAAAAAAAAAAAAAAAAAAAAAAAAAAAAAAAAAiZUi59wE3KXlPxD8wfK0dVMT+Kc/d6p8qfdqf8T3FrnzJoirNPf1aXV6/obab71j5kr2Zs1dX9KL5ReX8DWnV6ma5mZmc5/u+dar1RCl28nqlLCwiYSDBkAAAAAAAAAAAAAApXBemc0zHpMf0WlADc/oV1g0dOlotXrkU1REece31ew6LnnRXP4LtE/o/M+3bmO8V1R9plzXDectTY/grqn85TS02lnShGE4ZUVjPXCKq1LYOlcVZ1qVRxlN5awsZZ+l2n11Ff8FUSzRTV7vzw4f8AEJxKz/BNU/nLvfLHxa66cfOzhv6O01rN4knF+XAh1zsDqFJOVNxmvP2vkbq5x5RF6HgXLfxU6ScfOqiPzeicF61cOv4ii5Hf7f5b6jqNtV7M1nuzxIdc6HfW2fSUpYXVJtHfIlL5dNqabkbqaomJ9sSz4x7y2KeTRtY4PmXGOm79JXZPkkQAJFJuIqp+uAzgmq5EEVZ8Os8f6jaPTf8ANuRGPrH+XmXM3xR6KiJizVEzH1h0K19Qo9uaXhnibi00e8useipSkn1w935nuU0z7qzXjzMNOeYfi11cZ+Tl0PWfExxS5MzM1frLQVdpbWDwsyflwJlb7BajVWZbsF4vj8jfW9zDYpnE10xP5Mf/AOUab/uUf0fnnqer+urndNVWfvLF/wAU9Z/PX+sug9qqfSBuF/DytjjUWT9Ef/yjTf8Aco/o+nS8XtV/w1Uz9sPzlp6p6zP8dX6y7b0p606ujV003ap+XMx5n6uWltPTnOMXHCbx5HXudgK9OlOpGopOMc478dF4m/MSmJcVy/xqm/bprpnMTEOUplNoyUkmuTKnnBwk4y4NPiWAfR8AAAAAAAAAAAAAAAAAAAAAAAAAAAAAAAAAAAAAAAAAAAAAAAAAAAAAAAAAAAAAAAAAAAAAAAQTUAlGVZqn0ww6nV26YzXVTT95ww3gyk3yM1VX5qzMevb+n7vNueOuuj0UT+Km5j2n/DX3nr4q7mozFjNHpGMtJd6xbW2VKWZdyJbpuzF/fYlCDjB+8+C+XM2y47zdp9NTNVddP23Rl5HzP8V2ht5po71e+ctQuL886+9MzXdqmmfTMuDuWaau9WZlDrraerPhQjuLx4stDT9gLams3c3Uf4eC8me283fE3rbkz8iqYifq8p4xznq9TMzeqmZcTTiPCd8otXvK9f8AmTb8M8PkWFaaXaWiSo01Frrj2vmRhMBh0jakgAAAAAAAAAAAAAAACMJAFZpTEpACL0+0Iqqz5wlGGRgxV6GifMy+3h/Eblnvbqqz95fPtImRcHlcH+ZiS3liXFdz5HduDdcuK2ZiIrq2x9Z8PY+Sviw+Xj/UTn3z/VrP82WOuxRPltLfU7mg8wm358UR+90CwvFipSUfGKxL5n6Dcrdf9BqpiKasZ95h6Hp9VbrjNNdMxPtMPy/0mtuW/wDlVTS7ryn1m1+mmJruVTTHpmUrtdqOlePxXIrnUP4fLjKzqY/DLi38T9Epq+ity5GM1TFP3mI/drRyh8X1qqjF2nvTH5y6Z1O+KCvVRNGnzR6dst/U1+0jT34y3m+S6shdDY3Up1/RShuJPjJ9lI2E53666PRZiaoqqj2mMNa+oPxM6q9Mxp6piPpLxjiPFrt6Zm9VNWfzfHRTEeEFvdeuLjKi9yPh2vmW9pWx1lZJSqL0tTq3xj8EcxxbnPV6j/nV1Tn6y4SNFTnOZ/VlmqURSjkpOTzJ7z8eZOqcI01uwSgu5LCJp7eFpvz7QrhL5PvA+ZKN8pGQVqrku6iqNs09piYTMFv1YHA3W+G/naLmnptTVmqIj7vd6Ggvw4801WNXEVT+GZ8ejfHh+ui5TFUeJhb2g3fp7ZJ848Pgup5n2x0z1O+k49mp7Xhl9D7ISrTKySkCAAAAAAAAAAAAAAAAAAAAAAAAAAAAAAAAAAAAAAAAAAAAAAACtVasXYn3DODIhWaZ91dk+4C81I+ZD49Xxm1b/jrpj84/y42/z1o6YzNyn+n+XFKpGPNpfE5oUKk+zFvyTOe+dB86HUZ6q8O/71P9P8n/ABX4d/3qf6f5cXrNL76+aOz6hcf4Uv8AK/2O3fOg+dDqP/Fbh3/ep/p/k/4rcO/71P8AT/J6zS++vmh6hcf4Uv8AK/2O3fNhMVw6rp+p2gqnEXac/l/lyWm5t01c4puUzP5f5fca9OXKSfxRxTtK0O1CS800czlLDTOe8Vfp3WiifdzHVwZBSase5Fz7smC4IABFVWGO7cimN0ziI7zn2DKRff7Pl13ErduM3aqaY+rzrnzrtotLTVFNcTcj07eWqfULr9q9ZVVRE1U0+mPZHb/W6FqsJ78+5fqTbR9lLzUGpNejp9W+Dx4J8zZfqJ8ROm0kTFqqmuY9sT3a1c7/ABEarWbqaZqoz7dnll2uuqZmqqas+85UmY9lfXmtXNy2s7ke5fuXVpeyljYJPd9LUXvPv8jNqNbermZuV1V595ywRRT6Qn9U4aB8f+ZJmljlw8uC+RG6fcwlLBkjCQAAAAAAAAAAAAAAAAAAAAAAAAAAAAARgmEgCO6N3v3WRgAiKfSMIxHpCcGAEZThIAhIAAAAAAhXK6lQDkOB8Xmxet1R61R+79DelfFYu6O3VnvNMfs/OKuPxUz7TDc/4bOYZuWqaM+ITHZq43K8qb5SXDzKu28slVtIVlzg/a8UbBUpVpWhaR57JAAAAAAAAAAAAAAAAAAAAAAAAAAAAAAAAAAAAAAAAEAGSZVrqj1mI/o4Dj/Omm01MzVcozHpuiZfE5xgsyeEctOlOq1GCcm+SSyc9Ff0lWvEd5qx+cRH9Wu/OHxcaa3ut24/F4z5eG84/EFr78z8muqmPpMo3dbQWtHO6/SNdxO9P2L1C6w5x9DF9Zdxutx7qRpNNn5lynt7TDzzjvxT8OtxMUVZq+8NLtdzbrL3/NrqnP1lxFekonvMzlGK+1FaX8qKivHmT+z/AIf2sEvWZub/AA8EbN8e+K6uc/Kn7PNeK/E1xeuqdtVW37y8wps0x4ZIvVfRoa2q3VXnUa8iY22zmnW/Zoxl/Uss7ZrOs3Erv8VdX6y429z3q64xNdX6y4Sbs/QmuXQlcVZc5t/E3MLK3h2acY+SPrni93+er9ZP/Vrv89X6y+IcW8+87Ho49y+SPt/9Wu/z1frJ/wCrXf56v1l8QxvPvHo4935I5LT8w36JzTXVn7y5LTdTNdbnNNdWfvLrid8/R9xqzj2ZNfE4p21KfagpeaR33S/EXxe3MbaqsfeXfeXPip1cY+dM/Xu8Gi/V9Faoz5d6lqV1TeVUb83wNVcaDp9dYlQivFLDNzuX/ix0U4puz3+/d6Ry/wBZNDqZiKK4zPvMPzknRW/PfLkNFxu/Z72q6on7y3tDaa4h/MSkvzIfebBWVVN0JOEvHs5P0+tV01d4qiY+kxMMkz6f1fnnyz1z4lZqp33Kppj6z4ew1/F3RFjZj/cxjPrnCT2+0drUTcswaXXr5Ff3mw1/RklTxVTfNdPFmxHN3Pmm0NG67XH2zGfzaq9VPiWvXaqqNNMxR3jtPo8l5v6iavWV1TdrqmiZ7RmfDrFMY8IrqOv1a+YUfYh/qZYmh7GULNKrc/a1e73F8O9H0cT11d+rfcqmap+rBuRhMIm3l5fMslRUUkuCXLwIwnAlgyAAAAAAAAAAAAAAAAAAAAAAAAAAAAAAAAAAAAAAAAAAAAAAAAAAABWqFkSAU+Jn2bGfCFxaa7s058Nc6PEvY/hY1c0aicestxpFTcu6T8eJGNpaXpdNuF1UeBvXHlaHz6OvNOfo+iF1J5PKTWHgkBkwAAAAAAAAAAAAAAAAAAAAAAAAAAAAAAAAAAAAABTd3XY/UMnkXXrn2vSWppomYmY8tKuPc36y9XM1XapiZntmfDaX4qZ7R9v7NQb895VTtDXm7hwy91clnB6K2JtKKsY1d1OcubaTZjropmc1d591onHjsrELYRIsoTVKNqwAjaYSAAAAAAAAAAAjCQBWaTMrACJqz5V+XR7d1sGADKMJSAjCQAAAAAAAAAAAAAAAAAAAAAAAAAAAAAAAAAAAAAAAAAAAAAAAAAAAAAAAAARR4l658Mn/AMj83kdHiXrnwyT/APsfm2Wm/wB6p+Zodd/6fcf0m9XDv4Y+z6ofLw7+GPs+qF3x5I8lz7T8yQH0fAAAAAAAAAAAAAAAAAAAAAAAAAAAAAAAAAAAAAAFPVdT1YMmuPxU+I+39mod/wAy29+KnxH2/s1Cv+ZVHtB/e5HpbYv/AKbAxQsrCyMk+AAAAAAAAAAAAAAAAAAAAAAAAAAAAAAAAAAAAAACMgJEZMgJFf1TFEe4BMo3LbI/mhE1z6RM/kAjeZVnU3PS1VP5S+rQ6S/d8Wa4/wD6z/hlceC+jMSe6svCXmjBEHy/q7HounuqueLdcflLkrfRnWz221/pLsRtqsuUG/gdKd/bQ4SqJfFHTIsz7wfJ+sPSrPw1cQqjP4v6r/8Ati4h/wCX9XP/AGfc/wCGzpvWrBf9+J5l8n6wfJ+sPTv/AGxcQ/8AL+qP/bFxD/y/qf2fc/4bH9taf/jxPMvk/WFfl/V6bc+GfiERn8TiL3RfW05iaau30l8SsriPOm0ckNWsp9mtF/E6TMK7nYNbyNqrXm3XP5T/AIcHf+dROJs1/wD1n/DqyhKHaTXwZsadaFTsSUviim43I+fX626o/KVo7+ez4OX/AJ3/AECUTRH8yJj7sgsIyZYBIjKQAAAAAAAAAARKVagE0eJey/CpopuaicekvGYn092zfwmcCi3XNcYmZbnR6XpLun3J8SLbT11R02u+rXA2u0lvEY+j6IVjytC6VwPKjeXkkBkwAAAAAAAAAAAAAAAAAAAAAAAAAAAAAAAAAAAAABj9WRSY7hk1w+KmYxH2/s1Dv+Zbo/EzwSK7e7PiP7NMNTRiqY+qpNoYtXTb68j0lsTOMtPilzXMwwsqsi5YQAAAAAAAAAAAAAAAAAAAAAAAAAAAAAAAAAQTICUZQVRjvPgBOUbZ9k2ZiucURMy7JwHptxC/MbbVW2fXE/4ckKcqjxBOXksnDVrU6K3qklBLvaR1rdR6yvRbrn+Cmav6thuTfhJqv4qvTNPvnL2TlX4adHpsfw14+k/3hIbbQLqthtbkX1zx+RCb7bPTrbMYydSa6JcPmaScP5e1tyYiLNeJ9cT/AId/4B8O+r1GJmKqc/dvLoeVdJaiIptW+3rtiZ/ZydrTW4/hppj7REJHQ2Wpr+bPe/Ig13/EKtL+70lT8c5NReCfBXdzFdd3H0mf7PR+D/C5Yoxu2zj7PeJpq94TET9G8o6HZ0uzD5vJEbna3U7jt1ceSwefcL6JcPtxG61ROPpH+HPafkDh9P8ADYsx+Tsm1Hyo9m1ja0odmCXwRHqmoXNR5nUk/wDyeDibPK+kp/htW4/J9NPBbH8lH6Pu2QbIcyhFdF8kdR1pvnJv4sxU6amPER/Rb5Me0f0ZMGH3g4ssx/Jj2j+h8mPaP6MmDBgZZinT0+sR/R8tfBrE+aKP0ffhGyGHFPofSnJcm18Thr/Kekq/itW5/Jx+p6ccOr7Tp7X3iO7tOyEfLj2cTowfOKfwR2I3VaPZnJf+TR5dxnoDobkTtopj8oeZ8w/B7F2ZmiuKfzhs9hWaaveGuraTa1u1BfDgby12j1C2/l1X8fa+po3zD8KOp0+ZiZq/q8143yLrrE4+TXMR64l+lldqJ/iiJfFqODaartVatz96Y/fDQ19l6Mv5Utz8yY2f8QLuH94gqv8ApPzEuWLsf8yiqn7xhiiuj37t/ucegGj1ecRTRn2j/EPFucPhE+VE12Z3e2P8Izc7PXVLLit+K69fkT2w210+5wqjdKb6Y4fM1r2jtXH+l/ELEz/tVbY9cT4dX1FM25xciYqR2dOdN4mnHzWCc0a9Oss05Ka8GmyMpVpjPglxHOWERJkBIAAAAK1QsiQERL0jo51Xq4depirvTVP5Q83wiPafPpPs56FedCaqQeJLkdO7tKV3SlRqrehJcf3Xkfphyhzda1dqm5bqiZmIzHs7DEvz86O9YL3D7tNuqqZtzOO/iG8nKPM9GqtU3KJiYmImVu6VqsL2HdNdpfqjzTtFs7U0urle1Sk/Yl+jOwJViUt+QwkAAAAAAAAAAAAAAAAAAAAAAAAAAAAAAAAAAAAAUnyupXPkB5B8QfD6qtPVVHiI/s0W1kfjq+8v0Q6v6Ka9FdmPSnP9H55cRj/cr/8A5T+6sNp4btaMu9HoDYCrv2tSH3ZHyrKLQhZapIAAAAAAAAAAAAAAAAAAAAAAAAAAAAIAShGUxTn6AImUzTjv2Tp6aq6ot00zVM+sRl63yF8OGt1FVNdUTFucT3j0dqhbVbiW7Si5eXTzOheX9Czhv15qCxwy+L8jyfQaaq9Vst0zNX2en8lfD3r79VPzKKoon6T4bT8k/D/odNTTVNETcjGe0eXp+nsxREU004iPbtCcWWzPKVw+PcuXxKk1Xb7i4WMeH3pc/NHivKHwt6KxFNVXertM9nrvCuB2bFMUUUUxEeu2My5Gbf3XhNLezo26xSiolU3mqXV4816jn5vgikR7dv6EUT7sg7pq8kYMJAwAAAAAAAAAAAAAAAAAABGDCQBSqmfdG337sgGcnHa/hVm7TNNdFM596Y/d5Rzp8Muh1O6uIxX5jtERl7Op8r7unXtKNdYqxUjZWepXNnLeoVHB+DNEOdvhx1tiZm1TM0R9J8PJ+I6GuxVNF2mYqj6P1FvU7o2zTmJ7Tnw835z6E6HVU1TsiLk+J7d5Qy92ZT9q3eH3Pl8C1NK2+ksQvY5XSUefnI/PuKc9zL2jn/4Z9ZYmq5REzbj29nj2u0VduqaKqaomJxmYlBri1q273asXH6Mtyy1G3vY79CamuuHxXmYckSiY+pEuobIsISAAAIQsgBFE+nr7+z2joZ1qu6S7TYrmflzMRmf0eL4WouTGNvaY7/V27a5nb1FUg8Nfmu411/YUr2jKjWWVJcPB96P094Jxii/RTXRMTExEuRiWoXw8da5pqjT3au3aO8ttdHrKa4iae8T6rj06/heUlOPP3l3M8u63o9XTLiVKa9n3H3o+lKIlLakdAAAAAAAAAAAAAAAAAAAAAAAAAAAAAAAAAAAClzxK6tQDr/PWn3aS7T70Pzv5y4Z8q9XH/lP7v0l4npt9uqj3jDQrrzwf5OqqjxmZQTaijmEKndwLf/h/dbtWrR+9x+R5ctSiYTCty9iQAAAAAAAAAAAAAAAAAAAAAAAAAEABMoF7NiuqYptRNVU+kd2RnH/OHxKR7x59nceQ+lWq4jVEU0VUx74mHp/Rz4crmomm9fiaY7TMS215e5T0+moii1RTTMR5iO+Uv0zQJ3GKlb2Yd3WX7FZa/tnSss0bX7Sr1fuw/c8v6XfDrptJTE36Yrrj3x5ex6XSU24imimIphnin3WiFkW9rSt4qNOOF+b82UTfajcXtR1K8nJt/BeS6FdiyR2zWgAAAAAAAAAAAAAAAAAAAAAAAAAAAAAAAAQp8uPLIgBgv2Iriaa4iaZ8vLeofQXS6umfl0U01z69vP3eszCs0+zrV7enXju1FvL8/gd+0vq9pNToScGn0fB+a6n599Q+h2q0FUztqqj6RMvNa6Jj+L8M+09n6g8T4RZu07btFNWe3eM/o1x6t/C/TXuv2PrO2P8ACvdS2dlTzUt/aX3eqLq0LbiFbFG+9iXSfST8V0NSoWcpzByzf01c03aKqYjtnEuJj6ITKLi8NYaLZhUjOKlF5T5NcUWylWJTl8n2SAAhWV0AMml1VVuqK7c4qiYmcNzfh46wU6m3TYrmN9OIzM92lsTj83N8oc1V6O9RXRMxmYy3GmX8rOqpe6+0vAjGv6NDVLZ02vtIrNN9U+5+B+mdMruh9LeeKNXp6JiqJqxGffw73C5aNWNWCnHimjy1c287epKlNYlF4fwLCIlLmOsAAAAAAAAAAAAAAAAAAAAAAAAAAAAAAAAAQkAYqfMtOfit4HP+pmuI7Nx593iPxI8rxXp6r2PGWg1uh6a1kl04/Imeyd56tqNNv3vZ+ZpBUiFq57z95ViVOHqJFgGAAAAAAAAAAAAAAAAAAAAAAARkBGTCPr6Oe5R5Lv625FNqmcZ79pfcISm1GKy3yOKrVhSi5ze7Fc2+SPi4HwG9qK4otUzMziOzbnop8OtvT00379MTXPfEx/l2To10StaKim5cpibmI8w9hpp/LHosrSNCjSSq11mfRdI/7lDbTbXzuHK2tHu0+UpdZeC8DFptNTTGKIimPp2Z4pTgTVLBVLbfFhIMmAAAAAAAAAAAAAAAAAAAAAAAAAAAAAAAAAAAAAAISAIwpNPv3j2ZEYAefdQ+j+l4hRMVU001YnExGO/o026kdGtToq6sUzNuJ7TicYfoRVQ4nmHluzqrc27tMTHviEc1LRqV2nJLdqdH3+ZONB2puNNkoSfpKPWL47vjE/MbH9CJbAdaPh6uaeqq7p6c0eZxHp5eB3bExOJjEx5z2VZdWlS1m4VFh9O5+R6I07U6F/SVWhLKfNdYvuZQVipbLpG1JAAVwRPZZSQHrPQbqZXor9NuqqcVTjvPjMt6OD8Si7bpric7oif1fmBbuzTMXI/ipnMNvvhr6qTetxbvVd4jEZlO9ndS3X6vN8H2PAp/bfQvSQ9eoriv5ne+5myMLMVuvMZ92RZBRRIAAAAAAAAAAAAAAAAAAAAAAAAAAAAAAAAAAMd2OzqvU7hHz9Jcoxnt/Z22YYa7UVRVE+J7fr2cVWCnCUX7ywdi3qujUjUXOEk/kz80+cODfIvVUY9ZcFNL1/4heWqresrqiMU5n7eXkVVKjLyk6NacOWJHrfTLpXNtSqp53oLPmRFJtTEJw6eTaZK7TatgwZGSu02rYMGRkrtNq2DBkZK7TatgwZGSu02rYMGRkrtNq2DBkZK7TatgwZGSu02rYMGRkrtNq2DaZGSuEbfVbDk+XOXbmpuU27cTOZxOGYpyaS4t8j4nUjCLlJ4SXF9yPr5K5Hva67TRbidue7eLpN0ns6G1TO2N+Iz2jy43or0ho0VqmuqI3zGZ93rlNK1NE0dW8VVqrNR/6TzztVtNO+qO3oPFGL/zPxJiFhKXlakJAAAAAAAAAAAAAAAAAAAAAAAAAAAAAAAAAAAAAAAAAAAAAAQiYysgB8ut0VFymaK4iaJ7d2sfXH4d8zVf01OKe8zEfrPhtLMMV21ExMVRE0z6Nde2NK7huVF5PqjeaTq9fTaqqUXw95e7JeXefmDxLhNdqqaK4mJjt3fJFLcTrt0Jpu01X7FPfvOI/X0ak8T4VXaqmiuJiY9+yodR0+pZ1HGXL3X0aPSmi63R1OipweJLtR6pnxYNqZhOGpySPJXabVsGGcjJTb3dg5E5luabVUVxOKImM+3lwNVKLlMzGI8vqE3CSlHg08o4qtONWEqc+KksPyZ+kXT/AJso1diiumY7Uxl2uJagfDP1H2TGmqn6Nu7VcYj6911aXeq7oRn1Xa8zyttBpb067nS91vMP6TKlEJbgjQAAAAAAAAAAAAAAAAAAAAAAAAAAAAAAAAEKVTj82RWqkB4X8SnKFNWnm7Efi7/dpde08xnPu/SrmvgVOpsV0Vd+04++GgHUngE2NVXRjERMqx2ntNyoqy5S4fEvbYTUvSUZWsn7UOK8u5HUNq20qpTEIJktnJG02rbTaZGSu02rbTaZGSu02rbTaZGSu02rbTaZGSu02rbTaZGSu02rbTaZGSu02rbTaZGSu02rbTaZGSu1WaV5hM0T6d5kyMl9FoK7lUUW4mapmIxDcfoB0ao01um/dpia5jOJ8x6ug/Dr0lmqqNRcpzHae8NstNp4piIjtHssfZ7ScJXFVcfcXd4lKbZbROTdlbvgv5jXX8Jloj9PZfBEJWEU2QkAAAAAAAAAAAAAAAAAAAAAAAAAAAAAAAAAAAAAAAAAAAAAAAAAAEIlZADFctxMYmImJ9GvXXXoVTdpqv2Kfxd5mI/VsTLFctx4nvEw6F5Z07qm6dReT6pm30zU62n1lWovGOa6SXcz8yOKcJrtVTRXExMS+KIbd9e+iVNdM37NP1qxDU/WaOaKppmMTE4/RTWo2FSzqOEuXuvvR6Y0bWaWp0FUhzXaXVM+babSIWw1OSQZK7URGO6+1E0s5GTkeWePVaS9Tepz5hv30m5wjV6ai5M/ixH7Pzyqt5/JsT8NHP2LkWKpxHaEs2ev3Qr+jk/ZnyX4u8rvbPS1d2vpor7SlzfXd7jb2iVoYrVyJxMeGWFunnVkgBgAAAAAAAAAAAAAAAAAAAAAAAAAAAAAACJSAMUx6e7Wj4men8RT86invPecQ2ZmHX+c+X6NTYrpqjP4Zw1WpWiuqEqfXHs+DN9omoysLuFVcs4l4pn5wV2pjtKsO1c+ct1WNRciYmI3Tj9XV5pUXUg6cnF8Gmep6NaNWEZx4qSyviRgwtEJw48nPkpgwvgwZGSmDC+DBkZKYML4MGRkpgwvgwZGSmDC+DBkZKYML4MGRkpgXwrgyMlc47z4d/6P9PLms1NNUxM2omM+zp/BuF1XrtNmImd0/u3k6MdOadFYpzHeqIn6pHommu8rJvsQftefcQzafWlp1s1F/a1FiPl1fmd45c4FRp7dNu3ERERGXLxCKKVsLojFRSiuCXI80zm5ycpPLb4+ISD6PgAAAAAAAAAAAAAAAAAAAAAAjICRG5Wap9gF0ZY5rq9kxVPswZwXyZQMmCcmUImQFxi31eyYqn2YM4MgrEp3QyYJEZSAAAAAAAAAAAAAAAhEwsgB8+p01NVM0VRmmqMTlq18QPRPZM37FP4fMxEfn6NrKqXwcX4XTet1W6oiYmMd2q1GwheUnCS4+6+qf7G/0bVqum141YP2c+2ujXXh3n5oXbMxMxPbDHD2Prb0or0t6quimdkzM/R4/VQpK6tp29R05rDT+Z6dsL6neUY1qTypL5eDKmFopTh1MmwyY/DmeUOOzpb9FcTjNUfu4iqkqt5mJ/l7/o+oTcJKUeafA46kI1IuEuMZLDP0U6c8ci/pqK85mYj9nbKZa0/DHz386PkzPans2UiV7aZdK5t4VF3YfmuZ5W1yxlZXlSk+HHK8nyLpRCW1NAAAAAAAAAAAAAAAAAAAAAAAAAAAAAAAAABEwpVHp6MitUANcPiP6ab4+dbp+s4arX7G2Zj1ie79KONcLpvWqrVURO6nDSHrJ05nRX6sR2qmZ/WVXbS6Z6OXrNNezLteDLx2M1v0sPU6r9qPY8V/seYRC2FppIhX+S1slcGFsDOTOSuDCwZGSuDCwZGSuDCwZGSuDCwZGSuDCycGRkxzBt7Y9fRfDm+TeXqtTqKIpjMRVGf1fUIuclGPFt4XxOKpVjTg5y4KKy/gezfDf0y+ZMXrlPeO8TLbLT2dsRT7Q65yJy7TY09ERERO2Mu0xC9NKsY2lCMFza9p97PMGvapPULqdR9lPEV3JdxOEg3RGwAAAAAAAAAAAAAAAAAgBIhXcAtlG+GO5c2xmqYxDqfHuqehsRO67Tuj07ef1cNStCkszaivFpHYo29Ss92nFzfgmzt05+jDqddbo/jqpp+84a4c5fFVNqZizEVe09nkPMfXrWarPeqnP3Ra62mtKOYwe/L8vmTix2MvrjEqiVOD6t8fkbpcS570VqMzet59onMuj8Z+IXS2/E01NKNTq9TXO6b1ff0zLFiv1qmfzRittZXlwpw3PzJtb7B20ONWo6nwwbTcW+MC1bnEW4n9XX9b8Zc1dqbe38mvGKfWMkxR/K089or+XKpheRIKWyWlQxmk5Nfif0Pdv/dtd/lk/wDdtd/ll4Tin+UxT/K4P7cvv8T8jtf/AA1pn+D+Z7vHxbXf5ZZdH8XtymrM0zMezwPFP8pij+Vla5fLj6T8jD2a0trDo8/E2W03xpW6pxNmI/V2ng/xS2LnmmKWoOKP5YMe2YduntJfRftSUvhg6FbY7TJrEKbh/wCTZvpwXrVo7s4qrppz9XbNPzNpKv4b1qftU/N/F30uVR+cuQ4Xx7VWZzF6ufzn/LcUdrqi4VKefHP6EduNgaMsujWcfBrP5n6Q2dTTV/BNM/aWSM/RotwT4jNZpsY3Vf1epcpfFXNzHzYin37QkdttNZ1WoybhLy4fMh95sZqFBOUUpx8Hx+RszvTEukcA6t6C/EYuUxV7dnb9Pqqa43UVRMJPSr06qzCSl5NMhda1q0HirFwfimj6RTdjytEuc6pIAAAAAAAAAAAhWqldEwA6xz1yfb1tiu3VEbsTifXw0W6hcj3NHfqommdsTOJ9H6G1Q8k669O41Nia7dMb4iZmYjv2RHX9LV1SdWC+0gv8y7iwNlNclY1lRqP7Ko/hF95o/NKYh93FeHzarmifMT3fGp18Hh81zPQ0ZqSyuT5EYRTHn6rowxk+sneejXMn+l1FPfG6W9/AtZvtU1+8Q/NzS1TF63VE4xMN7ejvM3ztPRTnxEfssbZS74zoPkuyU9t5Ypqncx5vhP8AQ9IiVlIldZZTAAAAAAAAAAAAAAAAAAAAAAAAAAAAAAAAABEpQApXGO7zrrJyXa1GmruVRG+mO0/k9Fq9nmXXHmqLOmqoifxTH9mt1F01b1PScY7r+fQ3Gkeld3S9C8S318s8fgaR8U0WyuqPaZfHh9WtvzVVVM+sy+faoCWMvHLJ6phndWeeOJEQbVtptfJ95K7TattNoMldptW2m0GSu02rbTaDJXabVtptBkrtKltqIpBkrPbt7tkvhp6fzTPza47T3jMPCuTuX51V+iiO+Kob4dPuBU2NPRRjExH9k12ZsPT1vTS7MOXiyuds9U9XtvV4P2qna8Ednt2ojtHhkhFMJW8UCSAAAAAAAAAAAAAAAACMgAiqpE1Ou81c8afR0zVcqj7ZjLjqVI04uU3hLm2c1KjOrJQgt6T5JcWzsFyrEZmcR9XnvPHWbSaWmqN0TXH1jy8G6m/ERevTNOmmYp8dnifEuKXL87rtUzM/dANS2pjDMLZbz+8+XwLT0fYmdTdq3j3Y/dXa+J6tzr8SWsuzNNuZ2fT2eT8W4nd1FW6uurP3lgpjCJpV7c3ta5easnLwzwRbVnp9tZrFCCh4pcX5lKKMfX7rZ+idptdE2OSm1O1babQZK4Nq202gyV2m1babQZK7TattNoMldptW2m0GSuz6owvtNoMkRX9IRVRn6LbTayDLw3VXLM7qK6v1l6Hyn8Qmv09UU5qmj18vN4oWy7NC6q27zSk4eTOldWVC6TVeCnnvRuRyX8SGkuxFN6qIrnHrHl65wzi1u/TFduqJifbH+X5r2tPFM7omYl3flHq7rtNVEb6vlxPvPhOLDauccRuVvLvXPzZWmqbDU55nZy3X1UuXkjf7ctDxXp98Q+nvxTbrmIr8ZmfV7BpNZRXEVU1RVE+0xP8ARYdre0bqO9SkpfVFTXunXFlPcrwcX07n5H1JVipLvGsJAAAAAAAAAVljuW4xNM98xMfr2ZlZhgyjUj4h+mVNiub1FP8AF37Q8Aqo936Kc6csW9VYrprjM7Zx92i/PvKlWmvVxMYjM4VFtHpnq9X00F7E/wAn1L82Q1r1qj6vUealPl+JdMeR1LCZpTtNqFFj5KT/AAzPrHhsj8KvM096a5+zXHb6O/8AR3mCbOpoozjMx+7caRceguqc88M4fjkj2v2nrVjVp444yvDBvnbrz3ZHxcLuZt0T7xH7PshfKeUmeXpLDa7n9CwD6PkAAAAAAAAAAAAAAAAAAAAAAAAAAAAAACJSrWAp6/k1Z+J3mP8A3dlM/Rs1xrVbLNdftTMtGeqnH/n36u+cTP7oTtTdejtlTXOb/JFi7F2fpbt1n2aa/NnRK5REL4IpU/kv0rgwvtNpkZKYML7TaZGSmDC+02mRkpgwvtNpkZKYML7TaZGTHKJqx3n1Xmn0fRoOGfPrptx7wLLeFzfLzPlyUVl8Eufke4fDdyNPzIvTGaZbaW7cRjHh590Y5dixpaacd8Q9Dohe+iWatbWEerWX5s8z7R6g729nPpF4j5ItCUQlvyLgAAAAAAAAAAAAABGREyATKtdfv2j3Y7+pppiaqpiKY93gHWHr3FuKrNme/jMNbfX9KzpudV47l1Zt9N0yvf1VTorPe+iR2/qp1usaGmaKJiquYx274lqbzh1A1Grrmaqp2zPjv4cJxTidy7XNd2qasznv3w+OKVN6prVa+k+O7T6R8PHvPQGi7P2+mwTS36rXtSff4dxSmIjwthbanaj2SV5KYML7TazkZKYML7TaZGSmDC+02mRkpgwvtNpkZKYML7TaZGSmDC+02mRkpgwvtNpkZKYML7TaZGSmDC+02mRkpgwvtNpkZKbSZn8l9qNpkZGnuzRObczFXu9P6dddNRo6oi7VNVP1zLzDabY9e7tW93Vt5KdKW618vkdG7s6F3B068VNP5/Bm/HInU/Ta23FUVU01e2cS7rTX+j84+B8wX9NXFy3XVER/0xPb9G0PSXr/AEX4pt35ime0ZlaWkbSQuMUq/sT7+kvHwKU13ZGpaZrWv2lPqvej4eJ77EjBp9RTVEVUzE0z6wzRUnKeSt2scGWEJZMAAAAAETCQBiqp/R4L8RHTv5tM3qI8RmcfZ75XS43mDhVN6zXan/qjDW6haRuqEqcuq4efQ2+lX8rK5hWi+T4+T5n5y3rWJmPZid86q8l/6O/VTjzM/u6NNCgq9KVGpKnLg4vieoba4jcUo1YPKksorEd4ffy3fmjVW6/aY/d8UQvbr2zFXtP93FGW7JPuafyOea3oyj3xa+Z+gPIHGIvWKO/imP2driXjvw68T+bp/PiHsNL0Hp1b01vTn3xPK2q0PQXVWn92RcBsTUgAAAAAAAAAAAAAAAAAAAAAAAAAAAAAAUr9llJnuGTpXVXjfydNXH81OP6NFuK15u1z7zP7tpfiY458uimmJ8w1Uuzmc+6ndq7nfuVT+4vqXxsVa+itHV/xH9DAleKU7UIyWNkxjJtNpkZMYybTaZGTGMm02mRkxjJtNpkZMYybUVQZGSlPl3/ory3N7V0zMfhzH7ugaiPw/VtJ8NnKkTai7Md280W19Zu4R6ReX8CNbQX3qllUn1kt1fE984boKbdNNMeMQ+yIVoheIX3FJLCPM8pOTbfMkB9HyAAAAAAAAAAAAQlEyAiZYNTqaaYmqqcUwvdriMzPj3eA9dOr0URVYtVee3afya2/vqdnSdSb5cl3s22madVv60aVNc+b7l3nHdbetn8VizV27xmGtmr1dVczVVMzMr6vU1VzNVU5mWGKVGajqNW9qOc3w6LokejtK0ujp9FU6a4+8+rZjwlk2m1qsm6yYxk2m1nJnJjGTabTIyYxk2m0yMmMZNpgyMmMXGMjJQXDIyUGTBtZyMmMZNptMjJjGTabTIyYxk2m0yMmMZNptMjJjGTabTIyYxk2m0yMmLC9quqJzTM0zHeMdltqNhkwe69Guvly3VTY1Ezs8RMtpOEcat3qYromJiY9H5z/ANJjx7vV+kXWS7pq6bV2qdniMyn+h7RSotULh5j7suq8H4FYbRbLRrqVxaLdnzlHpLxXiboxKcuI4BzBb1FFNdExOY93LRK14TU0pR4p8ik5wlCTjJYafEsIS+z4AAAAAhTGO7IpXTkB4T8QvIMXaJ1ER4am3aMTMez9FOYuExqLVVqfWP64aPdUeW/9NqaqIjtmf3VPtVp/o5q4guEu1/UXbsXqnpKbtZv2odn+k6PMI1FOaMM1VKKqe2FelpJ8jZD4YePbLfy/dsvaqabdAuJxTepo+sNx7Hin7Lr2Yreks4x+7wPPW2FBU76Uvv8AHzMyUJS8goAAAAAAAAAAAAAAAAAAAAAAAAAAAAAARLFcq7TPtDJU+PX14tVz7U1fs+ZPCb8D6istLxNUviJ4z8y7jPicPEpjw7t1L4pNzU3ImfFUul4eedUr+muak/xfQ9P6Pb+gtKdPuivzKxCcLRSYavJuiuDC2DBkFcGFsGDIK4MLYMGQVwYWwYMgrhER3XwiI75Mg+ngmm+Zepo958fm3f6TcG+Tp6YxjMQ1D6X8Bm5rKKsZiJj929nDrURboiIx2j9lmbH22fSVn0eF4oqPbm7x6OguTWZeDPrphYhK0CoAAAAAAAAAAAAAIAFJ9lpl1/nHmOjTWaqqpiJxOHFUqRpxc5cElxOWlTlVmoRWXJ4R0vrP1Po0lqbdMxvqj9GnnGOKVXq6q65zMzlz/P3NleqvVTVMzGZx9nU5hRet6rK+rP7kX7K/U9F7P6PDT6CyvtJLM3+iKYWiExSnCNkrK4MLYMM5BXBhbBgyCuDC2CqnHkyYKYThktWKqv8AlxNU/R2rlvpjrNROKrdURPriXLSozqtRpxcm+5ZXzOCtcU6MXKpJRS72k/kdRxT7pxV6RMtgOXvhSmrFVdWPu9A4N8OentYzMVJNb7NX1XjKO4vP9CJ3O1un0cqMt9ruX6mn+27/ANur9JNuo9LNc/lP+G92m6TaOmIzbpn8ocxY5N0VEY+Ta/OnMtxDY2s+1VUfhk0U9u6C7NFy+OD8+duo9bNcflP+Dbd9bdX6S/QLV8i6K5H/ACbcfaMOJ1vSPR1R2t0x+UMT2OrLs1VL4YMw27t32qLj8cmieKvWJhGKfduHxX4ddPc8Yh0rjfwlROaqK/yaqtsxfU+zHf8Aibqhtfp9TG9Jw+GTXHEeiMPSeY+huq0+dlNVWPvLouq4Fqrf8duqI+0o5WtK1B4qQcX5PHzJRb31C4WaU1Jeaz8j4E4TNVPj1T8t1MndK4MLYMM5MlcGFsGDIK4MLYMGQVwYWwYMgrgwtgwZBSaUTGfv6Mm1G1jIPU+kHV+5pa6bV2r8M9u/ht3wDj9u/RFdExOYfnjNGfv7vYeinVavT1xZu1Tt7RmfCe7P686Elb1nmD7L+6+5lbbTbORuYu5t1iouMkveXekbhxKXw8L4jTdoiuiYmme+X2xK3oyUllcUyj5RcXh8GiwhL6PkAACJSAMfj82uvxF8jxETqIjvPdsVXDqfUvgH+o01VOM4if2abVrRXNtOGMtLMfM32iXrtLunUTwm8S8jQeooju5rmjhfyr1VGMYn+7iLdPd5+nFwk4vmnhnpiE1OKkuTWUdu6P67Guop+sfu3u0v8NH2j9mgPTe5s1tFX1j92+HANZvt0T9I/ZaextTNGpF/f4FO7d0vt6U19zj5nLQlWJWWOVWAAAAAAAAAAAAAAAAAAAAAAAAAAAAAAFapde534j8rT1/WmXP1z3h5v1w12zT+fMS6F/V9Fb1J90WbHTqPprmnDvkjT/mi7uv3J95n93ETD7eJV5rmfeXybXnGpLMpPvbPUVJbsIruS/IjBhfabXHk5SmDC+02mQUwYX2m0yCmDC+02mQUwYX2m0yCmFbk/hmWSYTFrP4fcyMntfw5cB+bVvx4bW2KcREezxX4b+DRas+PMPbYjyvjZy39FZQfWS4nnXai59Nf1PuxeEXSCUkRAAAAAAAAAAAAIlKlU+AGO5XiJq9on+jVnr31F+dXNqif4e04e5dV+bP9Jp5nPeqJhpXx7XfNu1XM+ZyrjavU/RxVtB8Zdvy6FobG6Uqk3dVFwj2PPqcbXOVYpXmlO1UuS6CmDC+02mQUwYX2m0yCmExGfCYpfdwTgF3VVxbs0znPfs+opyajFZb5Lq/I+JzjBOUnhLm3yS8T4LdE1TtpjNUu/ckdHNVqqo+ZTMUT64nw9p6YdAbdFNNy/H447+Ht2i0NFuIpopiIj2iFjaVspKolUunurpHq/wCorDWNso026Vot59ZPkv6TzHkr4f8AS6XFU4qnt2w9N0ugtURimimMfSP3fVFH1Wwsu2sqNtHdpRUV5FU3d/Xupb9abm/Ph8im327JimfdZLvHQK4Tt+yQMEbfsiYWAFJpn3RFM+7IgMmG5bo9aYn7xE/u6/zByHptTTMVUUxn1iIh2bCJhw1KUKicZpST8DmpVp0pKUG4tcsM135z+GS1FNVyzOavZ4TzB0+1mmmd9FW2J9p8N/Ipx9XFcc5as6mnbcojH2jKGahsrb18yo/ZS7l2W/EnembYXNu1Gv8Aaw732kvA/PX5kZxjunDZjqL8OdMxNWljv5a/ce5WvaWqabtM5j6SrDUNKuLGWKseH3l2X8S2tO1m21COaMuPWL7S+BxGDC21OGmybzJTBhfabTIKYML7TaZBTBhfabTIKYThbabTIMc0pmJnGJmJjvlfaiaTINg+gfVyqJjTXZ7R2zLZfT3oqiJpnMPzs0WurtVU10dsTmW3PRPqPTqrVNuavxRGJ791rbMa1vpWtZ+0uw+9d3wKc2t0JQbvKCxF/wAxLo/vfE9fiUqUytCyyqiQAAABEsWztMT9f2ZmOr0YZlGnPW/lf5eoruYxmZeT0+W2nxGctxXZiumO/q1RuWcTifMKF2gtfVrySXKXFfE9GbNXvrVlBt8Y8H8DkOS7u3U01fWP3by8j6qK7NMx7Q0V5cp/36fvH7t3umX/AMen7R+yS7Gze9Uj0IrtzFONOXU7jCysLLWKcAAAAAAAAAAAAAAAAAAAAAAAAAAAAAgmQFK/MPE/iZ10xYppjz/l7ZmWufxHcRiqNue8IztDV3LGr+JYJTs3T37+l3ReTXKZRC8lMKByei8kZMr7TaxkZKZMr7TaZGSmTK+02mRkpkyvtNpkZKZMr7TaZGTFLPw+jN6in3mGKI8OU5Y0G/VWvpVH7uSmt6UUusl9TjqzUYSb6Rf0NyOlXC/l2Ke3mId+hxHLViKbFuI/lhy8PStnSVKjCC6RX0PLt7VdWtOb6yf1LAO4dEAAAAAAAAAAACJYpq7TM+n9l7kurdSON/I01dcTicT+zgrVVShKpLlFZfwOehSdWpGnHnJ4XxNdOu/PU3btVnPaJw8Y2uZ5m4l867VXPvLiZh5z1G7lc151JPOXw8uh6a0y1jaW8KUVjC4+fVlYhOVopTta3Js8lMmV9qJgyMlVcLxH6Od5S5Suau7TbpicZju5KcJVJKEVlt8F3nHUqxpRc5vEYrLfcivKPKF3WXYooicZ7z6Ybe9N+lVjR26Z2x831nt5Zum3Ta1ordP4Y+ZiO/bLvVNP6rq0HQIWcVVrLeqv/R4LxKM2h2jneydGi92in/n8X4ERTleIBNyBBIAAAAAAAAAAAAAK1UrADH48Oo859N9Pq6at1Mb5jtPby7jKNrgrUIVouFRb0X3nYoXFShNTptxkuqNJ+ofSO/o65q2zNGe30h57Vbw/QfjXA7V+iaLlMTmMRPs1c6pdEbmmqqu24maZ79vRUGubNyts1rdb1PqusS6NA2ojdYo3L3anR9JfszxlZe7ZmJxPmFYQDJYmSMmVsJ2mRkpkyvtNpkZKZMr7TaZGSmUMm02mRkxR+7sfIfNNejv0zROIme7gJpR9fX0ctKtKlNTg8Si8o4q1ONaEqc1mMlho335Q5jp1FmiqJiZmIy7FEtWvh/5/m3V8q5V57Rls/Yu7oifd6C0bUY31vGfvJe0u5nnDW9NlYXMqfut5i+9H0CMpb4j4AAFJhdEgOt88cIi9p6+3imf6NHOZNPt1FdOMYmf3b/aq3miqPeJj+jTTq9wKLV+qZjGZlWm2NtmFOsuj9otPYm73Z1KL6r2To3Lv/Op+8N2+mUf/AK9P2hpNy7t+dT39YbtdNY/2KftDXbGP7SZsdt39nTO4QsrSstwpsAAAAAAAAAAAAAAAAAAAAAAAAIASglTd+QCdz5tbxG3bjNyqmmPeXUedeqOm0tNX4om57dvLWnnrrJqNXM05mmnvEY7dkV1XaG3sU4536nRLv8X0JZpOztxftSxuU+rfP/xXU9q6g9fbWmzTZxX9YxOGt/NnO9zWVzXVnv6OCqmc/imavv3RhUGpa5c37xN7sOkVyRcel6FbaeswW9PrJ82YthFtlwbUfySMx7DYybTaZBj2Gxk2m0yDHsNjJtNpkGPYbGTabTIMew2Mm02mQYood06WcMi5qKZn0l0/HaXqHQXh1Ny7mfSW00uHpLqlHnmX0NVqtX0dpVnyxH6m2vB7WLVEe0Q++HzaOjFMR9H0w9JQWIpeB5lm8yb8SQH2fAAAAAAAAAAESlFUgKRLwP4guZZiJtZ/J7zduRTE1S0/658Ym5qZ79sobtTdegs2lzm8fAmuylqq96m1wgs/E8vqp8qxQy1QiKVEZL9yU2Gxk2m0yDHsRsZMGO2PX0MjJk4fw+q7XTaiPMttujvTanTWqaqojdMZz6vN+gPTmLk/Nux47xls5ZtRTG2PEf2Wzspo+7H1uquL7HgiodrdacpeqUnwXb8WXppXErQKrAAAAAAAAAAAAAAAAAAAISAK1Uvj4jw+i7RNFcRMTGH2oml8yipJp8U+fifUZOLTXBrl4GqnWPpDNiqbtuPwT37fq8UrtP0E41wSjUW5t3IzEtSurfTKvSXaqqY/25nspzaXQfV5O4oL7N9pfdf7F0bM7QesRVtXf2i7LfvL9zy+KU7F5IhXeSyMlNhsZNptMgx7DYybTaZBj2Gxk2m0yDHsRFDLtRMGQfTwTiFVq7TcicREw3O6V83xqrFM58RDSaqjMYev9COefkXIsTPnsmOzOpeq3KpyeIVOf9XQhW1Gmet2zqRX2lPl/T1NtaalmHT3ImImPXuzQvdPJQbWCQGTARKQBSYeV9Xek8a38dPaY9vV6siXSu7Snd0nSqrMWd6zvKtpVVak8SRrLyd8OdUXorr8RLYrg/CIs0RTHpD74S6enaTb2CaorDfNnd1LWLjUGnWeUuS6IRCyEtyaQAAAAAAAAAAAAAAAAAAAAAAiZAJRMomXw8X4vbsUTXXMRj0fEpKKcpPCXPwPuMXJpRWW+XifVfvRETVM4iO8vEeqfXWi3E2tPP4o7TMS6j1W6213Zm3YnEeJx6vE71yapmqqc1T5yqvXdqudC0f9Uv8A2lq6Fsryr3i8Yx/9x9fG+NXNRXNdyqc595fAttTtVbKbk3KTy3zfVlqQjGCUYrCXLuRSKU7Vtph85PvJXabVsGDIyV2m1bBgyMldptWwYMjJXabVsGDIyV2m1bBgyMldptWwYMjJSI7S9l+GjQ77kz7PHcfhqe3/AAsfx1JDs8lLUaCfiR3aGTjp1drnwNm7VGOzLCseq0PRKPObJAZMAAAAAAAAAAUuT2XUuAOF5x1WzTV1e0f2lpRzlxD5l2qfrLb3qvxDZpK49Zj+zSvVTmqr7yqLbSv9pTpL7uX5lvbE0F6OpVfPewvI+eYTFKcJwrHJaOSu02rYRVBkZK4czylwCrUX6IpjMRMZcR9Pd7v8OfKe2r5lcZifDbaTZ+uXNOl0b9rwSNRq16rO1qVeqXs+OT3bk7gFFmxRERicRl2KIUotxHhkh6QpU1TgoR4JLHyPNtWo6k3OXFt5+YSDlOEAAAAAAAAAAAAAAAAAAAAAImEgClVLrHPvKtOrs1UTHfE493aZUlwVqUa0JU58YyWGc9GtKjONSDxKLyvM0P5v5cq096qiYmIiZcBMNpevHT+LlHzbdP4vM4aw6nSzRM0z5h561rTZWFxKHut5i+mH0PRGi6nG/t4z95LEl1z3/EwJ2piE4R/JIMldptWwYZyMldptWwYMjJXabVsGDIyUpfZwLXfIvU3frD5ZpVu28xhmM3FqS5p5Xmj5klJOL5NYfkzeDpnx7/UaemvPpH7O4Uy1x6Ac0zGLO78mxtPo9F6Jeq7tYT6pYl5nnHW7J2l3OHRvMfIulEJb80AAAAAAAAAAAAAAAAAAAAAAAAAAAAABABMq1VJmXH8W4rRZoqrrmIxGXxOSinJ8EuZ9xi5NJcW+RHGeM27FFVyuYjEeGrXVbqtc1NdVNFUxT3jt4W6q9Va9TXNFEzFMdu3h5VXVlTG0W0buG7e3eKa7T+9/sXLs7s6rdK4uFmo+yukV+5SqfX1RFK0QthXeSxCmDC+DACmDC+DACmDC+DACmDC+DACmDC+DACmDC+DACmDC+DACmDC+DADHj8NT3D4WY/HU8SiPw1Pbvha/iqSTZz/qVD4kb2j/AOnV/gbNx6rQrHqtD0UedyQAAAAAAAAAAAU9V1I8gPJ+uOsmLUx9Gp97zP3bJ/EFxCafwtbbk95UPtZV3r1r7pe2ydPcs0/vGKIThMLYQkmxTCswy4KI8gFrSzXXREe8NzulPA4t6aicd8R+zVrpdw752oiMZxLc3gGk2W6afaFpbFWqbqXD68F8CrttbtpU7ddOL+JydKUUrLcKkAAAAAAAAAAAAAAAAAAAAAAAAAAKysgB8XEdHTXbqpqiJzEw066pcoTp79VUxiJns3Pny8d6+cozfoi5TH8Mfshe1Gn+s2rnFZnT4rxXUmmy+oO2ulCTxCpwfn0NVtqYZtRZ2zNPtLFChXwL4TyRgwvgwApgwvgwApgwvgwApgoXwrMGQdn6XcWmzqoqmcRmG6PAOIRdt01R7NCZvzTNEx7w3J6P8XivS0RnvhaGxV41Odu+XNebKw20s8xhcLnnD8j0CFlKfRZbxURIAAAAAAAAAAAAAAAAAAAAAAAAAAACuUyxzPr6AKajURTTNcziIhrP1l6pTdqm1aq7R2nH6O1dbeqO2mbNme/irDXG/emZmqe8z5VHtVr+W7S3f/5Gvov1LX2X0LCV1XXH/tru8X+hS5Oe8+ZVi2mE5VTktMjYbE5Ms5GWRsNicmTIyRsNicmTIyRsNicmTIyRsNicmTIyRsNicmTIyRsNicmTIyRsNicmTIyRsNicmTIyVij8NT2z4XoxXU8VjxL1b4e70xcnE47pBs/U3NQovxZH9fjv2FaJtdC0MGnnszw9ILkedmsMkBkwAAAAAAAAABSPK6keWDJ4H8Qsd2u1dHdsV8Qs/ia8XJefdqH/AOvqeZfmzD/9FT8jFFC2wiU5RDJLckTQUU+SZK5Mg9L+H7hs/wCq3T4y25pj9muPQLQ/iipshHp9l9bI0fR2K8ZZ+ZRe1tb0l6/COPkTSlEJTghIAAAAAAAAAAAAAAAAAAAAAAAAAAABWtw/M+ii5p7lOP8ApnH3czVDHXTE5ifGHHUgpxcX7yx80clObhJSXR5+TNGObeDTavV5j1lwWx6/8QHCPl3+0eXkVTzNqlv6tdVKX3ZfU9JaZc+s21Or96JEUGxNMmWqybTJGw2JyZZyMkbDYnJkyMkbEVULZDIyVqtePo2B+H/jm6dmfDwCifL0foFxP5eo7+spDs/cOjfUu6Tw/Ij2v0PTWVVdYrKNvYlaGDT390RVHqzw9Hp54nndrHAkBkwAAAAAAAAAAAAAAAAAAAAAAABEpVqkBWqXReqvOVOlsziY3TE9vV2zjXFIsW6rk+I7tSep/ONWpvVTmduZ7eiHbSaurG3cYv7SaxHwXeSzZ7Sne11KX8uDzLxfcdS41xeq9XNcz5lx21eUxS8/Tm5tylxbfHzL4hFQSjHgkuBWKTatgw+D7yV2m1bBgyMldptWwYMjJXabVsGDIyV2m1bBgyMldptWwYMjJXabVsGDIyV2m1bBgyMldptWwYMjJXabVsGDIyY4p7S9A6Oamab0RnHd0KIdg5H1mzUURnGZhsdOq+juac+6S/Nmvv4ekt6kO+L/ACRuvw+c0Uz9H1w47gtWbNE/+MORh6gpvMYvwX0PNlRYk14v6kgOQ4wAAAAAAAAAKY7rqSA8Z68aGKqctZbtPeW2vWbg+6xNftDU6/T+KfuobbCm4XmcY3l8y79k6u9aYzndfyMEUrbUxCcIHknGSlVKt2nwyTCLseBsZNgOgvo2Chr30FvU9oz3bCQ9D7Lv/wBDAoLaX++zJhKISlxFQAAAAAAAAAAAAAAAAAAAAAAAAAAACFcd11LgDxjrzwKK6d+PENZrtHeW5nVbh8VaWur2j+zTjUR+Kr7z+6itsqCp3akvfjkuzZG4dS1cX7jwYIpTtThOFfk7yV2m1bBgyMldptWwYMjJXabVsGDIyUppdi5B1fy79P1mHX5h9Gh1U0XreP5o/dz0Kvo6kJ90l9Tgrw9JTlDvi/obyct3d1mifo5aHXORbudLbn/xh2KHqW2lvUoPvivoeaLiO7Vmu6T+pYB2TrAAAAAAAAAAAAAAAAAAAAAAABEypKanA84cepsWa6s4qx2+7hrVY0oSnLgorL+By0qcqklCPFyeEeW9cefdkTYplrpdqzMz7uc5t47VqLtVVU57y4LDzbrepSv7mVR9lPEfBHoPR7CNlbxppe01mXiyqV4gwj5vMlBfBgGSgvgwDJQXwYBkoL4MAyUF8GAZKC+DAMlBfBgGSgvgwDJQXwYBkoL4MAyY59GfhlWL9ur2mGOYWtVYmKvZ9ReGn3NP5M+ZcU13pr5o3S5E4t8yxR9KY/Z2iJeU9DuKxctR9Ieqw9P6TX9Pa06nPMfoecdTo+huakOWJfUuA25qwAAAAAAAAAMdxkVrgB1fqLpN+kuR6xH9mmfEdLNNdUT7y3n4vpPmW6qPeGoPU3hfyr9VOPWVS7cWrfo6/RLBaOxtyl6Sj3vJ0uErYTEKhLTyY5KYZMFPqyMnqXQLWx8/bn1bUU+n2aW9LeIfJ1EVZxmW4XBNZ8y3TV7wu/Ym5U7R0n2oy/IpvbC3cbpVFycfzOSpSrTKyyCvwAAAAAAAAAAAAAAAAAAAAAAAAAAAApdjsupc8MMI67z/AGd2kuR9P7S0w4ppttdUfWW6/Of/AMav7f2lprzN/wA2r7yp/bmK36Uuu7+pa2xk3uVY9N79DhFlphMQqgs7JQXwYBkoL4MAyUF8GAZMcpp/5lH3j91phMR+Kn6SfuvqM/R/Q3D6XayatPRE+kR+zvES8t6Na6arVMT7PUoen9IqektKUvwr6HnHVYblzUX4mWEQluTUgAAAAAAAAAAAAAAAAAAAABEylWZAVmfVr9185rmaooont4l7bzHxOm1ZrqmcTtnDTznDjVV69Xme2ZVxtlqXoLdUIvEqnPwSJ5spYemrutJezT+rOv195+6sUrphROS5eRTabWQMgx7TayBkGPabWQMgx7TayBkGPabWQMgx7TayBkGPabWQMgx7TayBkGPabWQMgx7TayBkGPabWQMgx7Va6fwyzIpj0MmcntHw/cc+X+CfVsXbqzGfdpn0547NrU0U+kzH7tw+HamKqKJifSF8bF3vprR0m+NJ4KY2ttfRXKq44VFk+7KUQlYpBAAAAAAAAAAIlIAx0+Za8dduV5+ZN3HZsPcdP6o8C+fpqoiM1d/v4RvX7L1uzqQ5uKzHxa6G/wBEvPVbqEuSbw/JmnFVPlWKXIcV4dNquaJ8xL4sPNE04tp8GufmegYyUkmuKfLyK7UTSyD5yfWRavTTXRMekw286Xcx03NPRTnNUQ1Dj1erdDebfl3Ntc9pntlNtlNS9UvFGTxGrwfciIbS2HrVrvJZlT4rvZtBTKzBp7+6Iq9JhmiXoZPKyijWscCwDJgAAAAAAAAAAAAAAAAAAAAAAAAAApc8LqXJ7MMHC85f/Gufb+0tNuZo/wB2r7y3F55v7dLcn2j+0tNuN6nfcqn6z+6ndu5pTpR67v6lqbGxe5UfTe/Q4yaU7VkwqXJZpTabWQMgx7TayBkGPabWQMgxTSnb+KPuvJ/1R9zP1Bs30Tj/AG4+z1yHkvRT/lx9nrUPTegf3Kn5HnvW/wC91PMmEohKRGiAAAAAAAAAAAAAAAAAAAAAIlSryvKk+AHkPXfmHZRFNM+ndrdduZnPu9t638v3878TNP5vEKqcdnnPaytUqX099OKXZ8u9F6bN06cLOO48t9rz8SIpTtIThCyVkbTanBgGSNptTgwDJG02pwYBkjabU4MAyRtNqcGAZI2m1ODAMkbTanBgGSNptTgwDJG02pwYBkjabU4MAyRtNqcGAZI2o2rYRVADLoL+yuK/aW2XSnjcXrETnOIajXaMxh7R0M5niiYs5TrZG/8AVrxQk8RqL/UQ/aaz9Pa764yh/wDqbG0pUo9F4ehikCQAAAAAAAAAABEsVVETExPr/dmUmGGgavdY+TptXaruPwzLyzDcbqPytGqszGO8RP8ARqXxzhk2rlVGMYl562r0l2dy6kV9nUeV/V1Rd+zepetW6hJ+3T4Py6HHRCdqFkFJgV2s+i1M0XKa4mY2zmWLCuPRlNpprmnw81yMNZWH15+TNs+l3O9OptU0570xj9HoFNTS/kXnC5o7tO2Z2TPf+7bTlXma3qbdNVEx4jL0Jsvrsb6iqVR4rQWGvvJdV3lJbQ6O7Oq6kF9lN8PB9zOeSrTKU7IcSAAAAAAAAAAAAAAAAAAAAAAAAADHd8MinqA6r1LvxGkuR7x/aWneoj8VX3ltD1l4hNNqafo1dv8Amfuonbisp3cIr3I4Li2QpOFtKT96Rj2p2ohbCtSekbTanBgGSNptTgwDJG02pwYBkrNJj8UfdMwR/FT9z9x+xs30Vj/bh6w8r6M6WqLcTPs9Uh6e0BNWVLPcefNaebup5kwlEJSI0YAAAAAAAAAAAAAAAAAAAAAVmFkYAcfxfhFF+iaK4ie04a0dTumtWnrmqmJ2z37NpZpcXzBwKjUW6qKojMx2lFtd0SnqVFrGKkV7D6+TJDpGrVLGqnnMG/aX6o0lqtoiHo3UHpVc0tU1UxM0z3+jzuq3Lzpe2VazqOlWjuyX/OBd9rd07mmqlN7yZG02kQnDoHcyRtNqcGGTGSNptTgwDJG02pwYBkjabU4MAyRtNqcGAZI2m1ODAMkbTanBgGSNptTgwDJG02pwYBkjabU4MAyRtNqcG0GStMd3L8ncT+RfprzjvDiZpK6ZnGPRyUqrpTjUjzi8rzR8VIKpCUHyksPyN0+U+LxftU159Ic5TLwzolznmIszPh7jTL1Dot/G9tYVU8vGJf1dTz9qtm7S4nTfLPs+XQvCUQlvTUAAAAAAAAAARKQBjqp9PSfLxLrP04iqJu2qe/mcf1e3zD5tZo6a6ZoqjMTGGm1XTaeoUJUZrmvZfWL8DaadfTsq0asOj4ro14mjd6xNM7Z8wxxD1bqz09qs1zXRTM0zOezy2q28z6hY1LKtKjUWHF/NeBfNleQuqUakHwa+TK7UbVoMNad/JSI9PR3LkDn65pLkd5+XnvDqE0mPfw7dtdVLapGrSe7KL4fs/A61xQhXg6dRZi1x/deJunyzzLa1NuK6ao9MxmHNU1NM+Uud7+kriYqnZ7NkuR+ptnVUxuqimfrOF+6DtRRv4qnVfo6y5p8FLxXmU3q+z9WzbnT9ul0xzj4M75CWK3cif4cTC8Ve6dJkRLCIlLJgAAAAAImUbvYBYY81e0LRMsZMlhCWTAAAAAAAAAARKkT3/JaqWHU3cUzV7Qw3jj3GUs8Dw3r7xjbVFHu8IqejdYuJ/NvT3ziXnUw8ybR3Xp7+rLopez5F96HQ9DaU11a4lIpW2piDCMm/yRtNqcGAZI2m1ODAMkbTanBgGSswRH46PvC21GDP1+gybXdKrtE2acTGceM/R6BTLTrkznu9pa4map258fRs5yVzxa1dETExE48PQmzOvULulGh2KkVjD646opXX9IrW9SVbtQk+a6Z7ztcJUiVk+IcSAAAAAAAAAAAAAAAAAAAAAAAjCJhZGAHH8W4TReomiuInPr7NcOpHS65Zrmq3TM09/DZ6YfNrNHRcpmmqImJj2RnWtDo6nT3ZezNdmXXyZvtL1arYTzHjB9pdPM0ert4nE+YRh7d1O6PTGbtiM+s4eManS1UTNNUTEx5eeNT0qvp1V06yxx9l+7JeDLosNQo3tNTpvzXVMw7TCZhOGnybIrgwtg2sZBXBhbabTIK4MLbTaZBXBhbabTIK4MLbTaZBXBhbabTIK4MLbTaZBXBhbabTIK4MLbTaZBXBhbabTIK4RC+1FVJkHM8mcanTXqas+Zbbcr8Vi7aprz5hphNOe/s9u6Jc95/2rk9o7RlZWxmrq2r+rVHiFTsdyl1yQfafTnXpengvah2u9rwPe6ZSx2rsT3jwyQvtMqBkgMmAAAAAAAAAAhWaV0YAcfxbhNF6iaK4icx59mtnUrplXpq5qoiZo85bRTD4uJ8LovUTRXETEovrmh0tTpYfs1F2JdfJ+DN/pOrVLCplcYPtL9V4mkVVHoiIexdR+jtVuZrsxmPPZ5HqLE0zNNUTFUPO+o6bXsKjp1o448H7r8mXTZX9K8gp0nnvXVeaMWDamacGGpybErt92fSay5bmJoqmnDHgw+lJp5XB+HB/Mw0msPj+aPVOT+uly1iivv6Zl7Py71G0t+mJmumKp9JaiYhexXXRO6muY+mU50zbC8s0o1PtoLo+DS8yJX+zVrc5lD7KXeuKb8jd7T6yir+CYlmiJ+jUbhfVrVWMbZmcO78G+IK9V/zIwsW023sK2FUzTl5ez8yFXGyl3Ty4YnHz4/I2D7mXkvCuuNqf45iHK/8AGnSfzQklPaCwnHeVVLzeGaOej3kHh02/I9FRMT9Hmmq62aaI/DMOp8Z6/V0x/t93XudptPoLLqZ8uJzUdCvKrwoY8+B7nevxTGapiIdU5m6k6bT0zNNdNVUejX/jHWnV34mJzDpmqv11zNVVUz+aD6jt5Fpxs4Zz70uDXjgldlsjLO9dSx4Ljn4nseq+JiaasRbjGfZ6NyL1No1dMT2ifZqlRifSHeOkWpuRqYiM7c/k0ej7VX8ruEK0/SQnLGMYxk22p7P2cbacqUdyUI5znng2uipaGO36faGSF+op9kgMmAAAAAAIARW4fmjVxRp7kz52uXny8t61cw/Ko258w1Gq3cbW1qVZdItfFrBsdPt3cXEKa6y/JGvXH9ZNd2vPvLjNrNqK8zM+7Fh5Vq1HOTk+OW/zPQlOKjFJdEIpMLbTa4sn2VwYW2m0yCuDC202mQVwYW2m0yCuDattNpkFMe7sXJvNVzTXaZ3TFOe7r80mzPZz0K86E41KbxKLyv2OKrShVg4TWYtcTcnlPmijU24qiY8Q7BEtUOmHPFenuxRVM7M/k2i4VxGm7RFdM5h6Q2d1yOp0FnhUjwmv1XgUhrWlSsarxxhLsv8ATzPuhKtKUvI2SAAAAAAAAAAAAAAAAAAAAAAAiYEoAY67cTGJjMT5eac+9Ird6JqtRiuXp8qzGPDW32n0L2m6deO8ny715M7tpeVbWanSeH+T8zTDmHle7pa5prpnz5w4jY3H5l5OsammYqpjdPifXLwPnXo5esZrpzMe0KI1vZK4sm6lBekpeHaivHvLZ0vaOjdJQq+xU/KT8DzUwyXbNUTiqJp+/ZTCv3lf84/ImCeSMGFsJwxkzkpgwvgwDJTBhfBgGSmDC+DAMlMGF8GAZKYML4MAyUwYXwYBkpgwvgwDJTBhfBgGSmDC+DAMmPD7eEcRqtXKaqZxET3fLMIx2w+4TlCSlF4aeV8D4klJNPk1xNtun3NNGotU4nvEd3boapdM+catNciiZ7TLZ/hXEablEVUzE5h6T2Z1qOo2yUn9pBYkvLkUlrmmOzrNx7EuMTkEogTQjBIAAAAAAAAAAAiYRMLImAGK9aiYxMZifLzXnvo/avRNVqIiuXp8q4x4a2+0+he03Trx3l0715M71reVbWanSluv8n5o035k5Iv6Wqd9MzH2lwMd/o3V4ry/ZvRi7TTP6dnkvOHQj5kzVZ7R7eqmNX2Jr0G52f2kOkffXxLN07amlVShc+xLv91nguB2LjvIeo03/TVVj6Ov7a/+qmY/JW1ahVoS3KsXGS6NP6k2pVoVY71OSkvNfQrhG1fEe5tj3dfJzZIir6Iq7/RbajYzlmCk6eJ9Vf8ASR/NP6suw2PnC7jO8+8x/wClj3lemnH1W2R7kR7d2Vw5DLImv6K1Uer6tFoL1ydsUVd/pL0rlDofduTFdeYp84ltbHTbm+lu0IOXe8YS8ToXV9QtY71WSj3cctnnnBOXbupmKbdM/o2L6ZdMo01EVXI/G7Ry3yRY08RtpjdEeezsS79n9kqdi1Xrvfrf6Y/7lWaxtFO7TpUfYp/6n/sKKVgWMQokAAAAAABEitUgMOou4pmr2iZawdVuZvn3Zpz4l7p1K5jjT2Z/8omGrHFNVvuVV+8qf261PdUbSD4vjUXh0LI2UssuVxJcuEP1PhwRC2FsKVyWfkpgwvgwDJTBhfBgGSmDC+DAMlMGF8GAZKYML4MAyUwiqlkwjAMlIz6ej3foxz1uxZmfDwrGHI8A4xVp7tNVPrMN9ouqS0+5hVT9nOJ+MTUapYxvKEqb7WPZ8GbpUyvDrfJXGYvWaapnMzDscPUlvWjWpxqR5SWV8ShatN0puEucXj5FhCXYOEAAAAAAAAAAAAAAAAAAAAAAAIJSAK4Yr1imqMVxEx9fDOhhpPgzKeDzfnTpFa1GaqIimfp2eG8zdPtRp6pimiZj3bczS+bV6K3XExVTTOfpH7oJrGyNpfZnD7Go+q5P4Er07aK4tMRl9pBdHzXxNKLlG3tV2kiPZsdzZ0Ts3d1dParzh49x7ppqrUztpmaY+6mdT2avbBvehvw6OPtcO945Fk2Ot2t2uEt2XVPh8jqWEMl+1NE4riYlWnE+EUbw8Pn3dTfp5Wen5EYMLfLRhjIyRgwtg2mRkrgwttNpkZK4MLbTaZGSuDC202mRkrgwttNpkZK4MLbTaZGSuDC202mRkrgmFtptMjJSmcd48vaOkXULGLVc9/Hd4zj1ZdJq6rVUV0+YbrSdUqadcRrQfBdpd8evDvNbqFlC8oulLr2fBm61m7ExEx6ssPMelvUGi9biiur8b0umt6h0+/pX1GNak8qS+T7n4lF3lpO1qypzWGn813oulCWzOiAAAAAAAAAAAAQkAVmmETlcAfFqeGWav4qKZ+8ZdT4/0s097O2mmnLvGETDoXNjQuYuNWCkn4LPzO3RuqtF5pycX58PkeFcV+HSO9VNefo6trui16jxEy2dimfdFUR7R+kIfcbFabUy4R9G33MkdHae9hwlLfXkakXOnepicbKv0lx+s5R1lHi3VP5S3Em3R/LT+kf4Vmzb/lp/+tP+Gjqfw/t2vZrOPwRtIbX1lzpp/FmoGj5N1dXm3VH5S5HTdNtTV5oqj8pbXRat/wAtP/1p/wALRRR/LH6R/h9U9gLdY3qrl38EsmJ7XVn2aaXxZrdwzoXdudpzDunAvh/t2piaqon+r2GIj0xBFM+6QWux2m0GpOG/JdW/0NRX2kvaqaUt1Pojg+F8n6a1ERFunMeuHNUW8RimIiGTAmVKhTpLdpxUV4JIjVSrOo8zbk/F5IiEpHOcQAAAAAAABABLDcvRETM+mf6QvU6D1W5tps2Zppn8c5+7X395CzoTrzfCK+b7kdu0t5XFWNKPOT+XieU9V+dJvXKrfpEvNJh9Wu1k3KpqnzL59rypqN9O9uJ1pvO8+HguiL7sraNtSjTjwwuPn1IikwttNrWZO9krgwttNpkZK4MLbTaZGSuDC202mRkrgwttNpkZK4MLbTaZGSuDC202mRkpNJt9fZfajBkZPX+iPNkzV8uqe0doe+264lp3ytxWbN6jHbM922PLuuiuzRMT3xC/thtTde3lbzeZUvo+RUu1NkqVZVorCn9Tl4SrCy0CCgAAAAAAAAAAAAAAAAAAAAAAAAAAAECQBTaxX7NNUYmmJifeIfQh8tJrD5GU8cTo/GukmkvZmacTP0jDy7mbojeiZ+TE4bD/AC4Jqn2RPUNl7C9XtQ3JPrHg2b+01y7tn7Mt5d0uKNPddyRqrWd9M9vpLhLl3bOJpn9G6Gs4Laufx0xOfs65xHpZo684oiJ/L/CvLz+H1VPNrUWO6XMl9ttdB8K8OPhyNU4u59Fvl/WHvPFeh1M52dnTtb8P+ric0z2Q652U1OhypOp/SSOjr1lV/wC4oeZ5vNKHZ+NdNdRp4zVmXW6reEauLatby3K0HTl3M3NKvTrLepyUl4FBbBtdXJz5Ki202smMlRbabQZKi202gyVFtptBkqLbTaDJVGcL7TYDJ9PCOKV2K4romY794bMdO+ereptxTMxv9e7V3a5PgPHbmnriqiZ890t2e1+ppVb71KT9td34l4kf1fSoX9PhwqLsv9H4G49MrOk8g8+29VREZiKojv7y7pEvS1neUrulGtRe9GS4fs/Ipe4t5283TqLEl/zJcQl3TrAAAAAAAAAAAAAAAABBhIAjBhIAjBhIAjCQAAAAAAAAAAAABEoqkmWHUaiKYmqrtEd3y2ksvoZSzwR8PH+MU2Lc1zPo1e555nnUXaqs9su4dV+fJuVzbon8Ph5VVDz9thr/AK3V9Wov7OD4/il+xbWzulerw9NUXtyXDwRSZSmKE7VY5JvkqLbTayYyVFtptBkqLbTaDJUW2m0GSottNoMlRbabQZKi202gyVRK+0mkGStM4qifZsZ0c4x8y3EZ8Q1zmntL1TohxbZVtmfKa7I3nq+oQT7M+fn0I1tBb+mtJNc48jYddhtVZjPuyvTSeSlGSAyYAAAAAAAAAAAAAAAAAAAAAAAAAAAAAAAAArNKIoXAFZmVcz9GRDGAcNzJwam9aqiYjOGrnNfAarN2qKoxGZw25mHl3V3k75tPzKY8R3Vxtlovrlv6xTWalNf5l1+RMdndS9Xq+im/Yn+T/wBzXpMSy37MxMx7McQ86Pg8FvJ5IFsGHzkyVFsGDIKi2DBkFRbBgyCotgwZBUWwYMgqhfBtMg+/gXHrmnriuiZiI8x7th+QeptvVUxTVMRVEfnLWjD6eHcSrs1RXRMxj0hLdB2ir6VUWHvUW/bj+q7sGg1TSaV9DjwqLsv9Gbl0V+vovl5R096r03Yii7OJ8d3qVm9FURNMxMS9I6bqlDUKSq0Jbya4rqvNFO3llVtJuFVY+j8mZUqxUltzoEgAAAAAAAAAAAAAAAAAAAAAAAAAAAAAAIADKJRNXr6AK114jPo8h6pdSYpibVufpOHLdSupVNiibduc1TGJx6Ne9bq6q6pqqmZzP6Kh2v2nVFOztZZm/wCY17vgmT/Z/RfSNXFdeyuwu/xMd+/NUzM+rFC2E4US5NvLLQSxyKi2DDGTJUWwYMgqLYMGQVFsGDIKi2DBkFRbBgyCotgwZBUWwYMgqLYQZBWHZOROIbL9MeMzH7uuTMR5dp5F5VvXb9FyInbEw2emqrK5peiTlLfXLos8cnSvJQVGfpHiO6+ffjobScPq/BTP0h9cPl0FvFFMT5iI/o+qHr6nndjnuX0PP8+b8/1JAch8AAAAAAAAAAAAAAAAAAAAAAAAAAAAAAAAAAAAABWpg1eliumaJjtPZ9Eq1Q+ZJNNPinz8UZTaeUa39UOTZs3JmiPwy89qhtlzfy3TqLVUY/F//jWTmPglVi5NExPl5t2w0J2Fw61NfZVHld0X3Fv6BqauaXo5v24c+9rvOIgymaU4V0S0rkytgwGCuTK2DAMlcmVsGAZK5MrYMAyVyZWwYBkrkytgwDJXItgwGRauTE5pmYx7PT+n/Vmu3MW7s/h95eXzQiq3n6Ntp2qXGn1VVt5Ya5r3ZeDOjd2VK7g4VVldH1XijcHhHHbV+nNuqJclFTU/lnna/pqo2zO31e6co9UrN+IpmYir7vQOhbYW2oJU6r9FW6p8Iyf4Sq9T0Ctatygt+n4c0vE76MdFcT3icrxUsFPJFSwhLJgAAAAAAAAAAAAAAAAAAAAAAAAIAMkyiany6/iFFqmaq5iIj7Pic1BOUnhLm3wSPpRcnhcW+RnuXIiMzOIh5T1G6qRbibdqe/js4bqB1XmrNFme3js8k1F+quZqqnMypjafbJJStrF8eUp/+0sPRtn3lVrlcPdj+5bXcQquVTXVMzMvmW2pwpKU3JtyeW+fiyx0lFYSxgrkytgw+RkrkytgwDJXJlbBgGSuTK2DAMlcmVsGAZK5MrYMAK5MrYMBkrkysiKAEZMr/L+qKJmZxFMz+R/zvBG1NinfO2mJy7Ry/wBONReqiYiYpl7Pyr0msWoiquImv8vKY6Rste6i01H0dPrKXDK/D4kfv9btrRYb35dEu/xPN+Sekly9MVXoxS9z4Dy5a09MU0xHjzhydq1FMRTEYiGSIX9ouztrpcPs1vVPek+0/wDYq3UdWr3svbeI9IrkMJMJSo0gAAAAAAAAAAAAAAAAAAAAAAAAAAAAAAAAAAAAAAABGEgCjzfqhyRTdom5RH4npUsVduJjExmJ/u1epafTv6EqFVZUlw/C+jR3bS6nbVI1Ic0+Piu4071ekmiZpnOYYXrnVTp7NEzetxnPecejyeu1MefLyjq+mVdNuJUaixh+y+jj0aZdtjewu6SqQfPn4PqUwYTEJw0mTY5K4MLYMGRkrgwtgwZGSuDC2DBkZK4MLYMGRkrgwtgwZGSuDC2DBkZK4Nq2DBkZKY/RfT36rfe3MxJtMMqTTyuDXJ9V5GHh8HxX5PzPQeTurdyxiL0zMPZ+W+d7GppiYqiPplqtNuJ8vq0HErtuc0VTEQsLRdtLuwxTq/bUl0fbXjki2obP0LnMofZz/wBPyNwKa49O60S1/wCW+s9drFNf4nq/AOftPfpiZqppn2ldel7UWGoJKnNRnjjF8MfF8Cu73Rrm14yjmPRrjk7VlL57Gppqj8ExP2ZYylqkmsrj+aNG1jmXFd8JiX0YJAAAAAAAAAAAAAABEyAkV3KzVPrjDGQXypVV79nEcY5osWYmZqpzHpl5Lzb1nmvNFvt9YRnVdobLTY5rTTljhFPLb7vA3FlpVxdv2I8OrfBI9K5n59s6aJ7xM/d4Tzf1CvaiqdtUxR7Ot63iF25MzXVM5fNFPsoTXdrrnUs04/ZUs8EuEn5vqWbpuh0bPEn7c+98l5IrM/qRSvtMIJkkxXBhbBgyMlcGFsGDIyVwYWwYMjJXBhbBgyMlcGFsGDIyVwYWwiYMjJGDDLY001VRTT3mZew8v9F6a7dNdU4mfRvdL0a61OUo20d7dXtPkvma291GjZpOq8Z5dWeM4O/pEy96jodb/mhyOi6QWafOJSqnsLqUniSUV5pmlltLaJcG38DXT/c9KJn8nI8O5ev3cRsqjP0lsvw/kLTW/NFM/k5izwmxT/DRRH5JBa/w6qNp162F1SX6mrrbWQ4qnT49+f0PBeDdDr1eKpnEfV6Vy10psWojfTFU/k73FOPGMLY91g6dsjp1i1KMN+S6y9pZ78Mi13rt3crEpbse5cPzPn0vD6LcYopiH0bUxCUyjFRWEsLuXBEfcm3l8WQkH2fIAAAAAAAAAAAAAAAAAAAAAAAAAAAAAAAAAAAAAAAAAAAAQiYWQA+XW6Omumaaoicw186jcjV2a5qpj8My2MmHG8b4RReommqIzjsiO0WhU9VoOL4VIr2H1z3fE3mlalOyqZ5xfaX6mo9VEkO4c68mV2K5nHbPs6lh5avLSraVZUqq3ZRZclC4hXgpweUymDEskJ2unk7GTFiTEsu02mRkxYkxLLtNpkZMWJMSy7TaZGTFiTEsu02mRkxYkxLLtNpkZMWJMSy7TaZGTFiTEsu02mRkxbTDLtNoMmLbHsvbuXInNNUx+a21E0m81xXDy4fQxnP/ADJ2rgXVHUaft3qeh8v9aYrx8zEfo8Tj7Iqt5+iV6ftTqNlhQqOUFyi+XzNJdaPa3GXKGJPquZtVoec9Lc8V059uzl7OoiuM0zDUTSaiu3Oaaqv1dh4f1Q1drG2ZmFj2X8R4cFeU93vccsilxsrL/sTz58DZ6KZTMvD+F9abnbf+btuh6xab/rlObTa7TLhcKu5/VwI7W0O7pc4b3lxPQvmQne6xp+o+kq7xX+z77fNmnnxVH9Ehp6la1OxVjLykjVytK0e1Br4M5nJEvlo4lbmMxVGPuy27sVeKnfVSMuTT+KOs4tc1gzDH8ufeT5c+8vvPgYL5RNTHXfpjzVD5dTxq1R/FVH9HFKrCCzJpebR9KEpclk+6bkIivLgNTz1paPNcf0cLxDq5pKY/DVmfyautrNlQz6StFY6byz8ju07C4qdmm38Hg7zMSw6nW0URmuYh4xxjrTcjPy3S+KdRtTezFUzEITf7fWFDMaWak+nD2fmb+22auamHPEY9e/5HvfFuf9LbicV0zP5PLuZOt1yZmiiO3jMPMr0VVTmap/UiPplWep7c392t2n9hH8PFteJLrTZ62ocZ/aPx4YM/EuL3rtW6ap7+mZfHj9WTCdqv51ZVJOU3vN88vP1JRFKKxFYS7jFgwy7Ta4z7yYsSYll2m1nIyYsSYll2m0yMmLEmJZdptMjJixJiWXabTIyYsSYll2m0yMmLEmJZdpMGRkwyMmHYOTOWqtRdjMfgy7FtQnc1Y0qazKbwvDPV+Bw1a0aUHOfBRXE7X0p5K3VRdqjs93s2NsREeHwcB4PTZoimmIcpTD1ds/o0NMtY0l2nxm/xdfgUtql/K8rOb5Ls+REUz7m2fdaEpRg0xXCcJGQQkAAAAAAAAAAAAAAAAAAAAAAAAAAAAAAAAAAAAAAAAAAAAAAAAAAAABEq1rqSwDrvO2gt12Kqq4jMR2az8RiN048Ze/8AU/jGy1NHvDXu7HeXnf8AiFcU5XcIQS3ox9t9W/EtHZinKNGUpPg37K6YMOE7VohbYqTJNcmPabWTYbDKGTHtNrJsNhlDJj2m1k2Gwyhkx7TaybDYZQyY9ptZNhsMoZMe02smw2GUMmPabWTYbDKGTHtNrJsNhlDJj2m1k2Gwyhkx7TaybDYZQyY8LRXK2w2M7wKTRnyx1aOmfVn2I+W+Xh81kzloWpmn+GZfVTxm9HiqXzRSYcsK0odluPk2ccoqXNZOTp5x1cRiKpx92W1z9rafFU/q4juZl21qN1HlWmvKTOF21F86cX8DnP8AiVxD+af1P+JXEP55/Vwm6TdLl/ta9/8AqKn+dnx6nb/4Uf8AKcrc571s95qn9ZfPe5p1NX8VU/q+HMndwS1C5l2qs35yZyK3pLlCK+Ba9rK6v4qpfN/pKfeWbaj5bpynvvMvafjzOdezy4FKaMeEzVK+w2Mbxkx4NrJsNhlDJj2m1k2Gwyhkx7TaybDYZQyY9ptZNhsMoZMe02smw2GUMmPabWTYbDKGTHtNrJsNhlDJj2m1k2I2mUMlMGFtrLptLNdUUU95n+j6j7TSSy3y8X3GHLCy+hl4Twyq7XFERM5bFci8o02LcZjvhwvTfp/TZpiuuM1T3ej00vRexmzPqcFdXC+1mvZX3F+5V2vav6eXoaT9iPN/eZaISJWuQsAAAAAAAAAAAAAAAAAAAAAAAAAAAAAAAAAAAAAAAAAAAAAAAAAAAAAAAAAAIlSPK9TBqrmKZq9ofMmkm304/IylngeM9Z+IT8zbHh5XLuXUTiG+7P3dPw8gbS3XrGo15p8N/h5IuvSqXoranHrjiUilO1aIThFsm3yU2m1fBgyMlNptXwYMjJTabV8GDIyU2m1fBgyMlNptXwYMjJTabV8GDIyU2m1fBgyMlNptXwYMjJTabV8GDIyU2m1fBgyMlNptXwYMjJTabV8GDIyU2m1fBgyMlNptXwYMjJTabV8GDIyU2m1fBgyMlNptXwYMjJTabV8GDIyU2m1fBgyMlNptXwYMjJTabV8GDIyU2m1fBgyMlNptXwYMjJTabV8GDIyU2m1fBgyMlNphbC9mzNUxTTGZllZfBcX072+5DOOZS1ZqqmKaYzM9nsPTfpxtxcuR3891unPTiKcXLkd/Pd6vZtREREdoXvsfshu7t7eLjzpx7u5vxK81vW85oUHw959/gLVnEY9mTBhK8UsLCIA3kkBkwAAAAAAAAAAAAAAAAAAAAAAAAAAAAAAAAAAAAAAAAAAAAAAAAAAAAAAAAAAFanw8YuYtVz/4vuqcPzPqdtiv6w6V5Pco1JPpTf0Zz0I704r8S+prjzBqd1yr7y4rD6+ITm5V95fM8TXNRzqzk+bk/qXrSW7BJdy+hG02rYMOtk5cldptWwYMjJXabVsGDIyV2m1bBgyMldptWwYMjJXabVsGDIyV2m1bBgyMldptWwYMjJXabVsGDIyV2m1bBgyMldptWwYMjJXabVsGDIyV2m1bBgyMldptWwYMjJXabVsGDIyV2m1bBgyMldptWwYMjJXabVsGDIyV2m1bBgyMldptWwYMjJXabVsGDIyV2m1bBgyMldptWwYMjJXabVsGDIyV2m1bBgyMldptTh9Wi4fXdmKaYmc+r7hGU5KMVlvklzb7j5lJRWW8JHy27M1TFNMTMy9f6ddOopxcuR3893I8g9OKLdMVXIzV57vRbVmI7R4X5sjsX6LdvL5ZlzhD7v8AV4le6xru/mjQ5e8+/wAvAWbMRGI7QyYSLvSSWEQNvISDJgAAAAAAAAAAAAAAAAAAAAAAAAAAAAAAAAAAAAAAAAAAAAAAAAAAAAAAAAAAAACtTr/Ocf7NX2/s7BLqnP2u22pj3j+zTaxUjCzrSly3H9Du2acq0EvvGveup/HV95YMPo1dWap+7Dl4oqS9qXm/qXfDOF5DBhbJlx7x9FcGFsmTeBXBhbJk3gVwYWyZN4FcGFsmTeBXBhbJk3gVwYWyZN4FcGFsmTeBXBhbJk3gVwYWyZN4FcGFsmTeBXBhbJk3gVwYWyZN4FcGFsmTeBXBhbJk3gVwYWyZN4FcGFsmTeBXBhbJk3gVwYWyZN4FcGFsmTeBXBhbJk3gVwYWyZN4FcGFsmTeBXBhbJk3gUwjC8OW5T4VF+7FM+Muxb0Z3FWFGHanLEe7Jx1Kipwc5coriRy9ytd1FURtmI93t3KHINvT0xMxE1fs5ngPBrdqiIppj7uXph6g2Z2Ot9NjGtW+1rtc3yj4JeBVmp61UuW4Q9iHd1ZWmhcSswjBCQAAAAAAAAAAAAAAAAAAAAAAAAAAAAAAAAAAAAAAAAAAAAAAAAAAAAAAAAAAAAAAAAVl1nnnSxVamfo7NU4DnH/k1fZp9XipWdZP/Df0O5aPFaGPvGumro/FV93z7X06ufx1fdhy8Q1X7cv6n9S7ocl5EbDYsOPeMldhsWDeBXYbFg3gV2GxYN4FdhsWDeBXYbFg3gV2GxYN4FdhsWDeBXYbFg3gV2GxYN4FdhsWDeBXYbFg3gV2GxYN4FdhsWDeBXYbFg3gV2GxYN4FdhsWDeBXYbFg3gV2GxYN4FdhsWDeBXYbFg3gV2GxYN4FdhsWDeBXYbFg3gVppdg6fU/735uCony7V0qsZv8Af3b3QoupqNrFc3VOlfS3beq390960H8MfZ9UKUURHheHtmnHdil3IpOTy2/EkByHyAAAAAAAAAAAAAAAAAAAAAAAAAAAAAAAAAAAAAAAAAAAAAAAAAAAAAAAAAAAAAAAAAFanF8w2Yqs1/ZylT4+KUZtVR/4y6d3Hfo1IvrTl9Gc1J4nF/iX1NZtfR/uVfeXzYc1zFpdtyrt6uIw8LXcHTrTg+ak/qXdRlvQi/D9CmDDJEGHUycpjwYZMGDIMeDDJgwZBjwYZMGDIMeDDJgwZBjwYZMGDIMeDDJgwZBjwnavL6NDw+u5VFNETMPuEZTkoRTlJvgkst/Aw5JLLeEvkfJ29za9C0/SiqaN0+fZ17ifJmotz2pmY+0pBc7PajbQVSrRe61wwnJ48V0OhT1C3qScYzWV3vB17YjD6ruhuU/xUzDB82lHppweJLdfjwZsE88uPlxKYMMmYTsl85zyBiwYZNpgyDHgwydjBkcTHgwyYMGQY8GGTBgyDHgwyYMGQY8GGTBgyDHgwyYMGQY8GGTBgyDHgwyYMGQY8GGTBgyDHgwyYMGQY8GGTBgyDHgwyYRJkFZh6N0r4f8Aj3POr3o9x6acNiLUVeqxNhLP1rVI/wD2lvGg1yt6O2f4ng71C0K0rPXhUxIAYAAAAAAAAAAAAAAAAAAAAAAAAAAAAAAAAAAAAAAAAAAAAAAAAAAAAAAAAAAAAAAAAACJYr9OaZhllWPL5ksrHeZR4R1C0m25LqEw9N6saCZr3RDzWul4s2ttnbapcQ6b/DxLh0ur6S2g/DiUiDC0QnCH5NrkpgwvgwZGSmDC+DBkZKYML4MGRkpgwugyMlcGF4p+qs1T7ZMmRFKI84x3cxwvlO9fxtiYen8s9MqKIibsZqTHRdldQ1WS9FDcp/fksRx4eJqLzVKFqvaeZdy5nnvLnId67MbonbL13lrkq1p4jERMuf02mpoiKaY7QzRD0js9sZZaSlNr0tZe9Ljuvru+BX1/rFa6yuzDuXXzIiIVrt0z5iJ/KGRKwXHPD9DQZOC4jyfZueYiPydZ1/SGxOZp8vQZpIpRy92d06841qEZN9cYa8jYUdQuKPYm0vyPFOI9LbkZ2Q69qORdXT5plsZNX0VqpifMIHefw006s805ypPolyN5S2juIdpKX1NZrvBL1P8AFTL5btG3+KJbKanl6zV5pj+jj9RyJpavNMf0Q+5/hdcLPq9ZPu3s/mbantNTfbg/ga7/AOop9pTFyHu2p6X6af4Yw4rVdKqM/hhHK/8ADrV6X3Z/0mwhtBay715nj+U4enavpPV/0vj/AOE15pqmxmrwePQuXlyO3HWLVrtpHnsUp+VP0d81HSW/6PgnpHrHSqbLavB49VnLyXA5o6nay/7iR1L5U/RG126npJq8+rJxLppet0bpy43s1qqhKcracYxWXldD6/tG2bSVRNvkdNwjDLdsTTOJ8qI08xeHwZsU88iuDC5h85GSmDC+DBkZKYML4MGRkpgwvgwZGSmDC+DBkZKYML4MGRkpg2rSfUyZyfVwXR/MuRT9WwfLOg+Xbin6PIenfBZquxX6Pc6KcRD0h/DLTXChUu5rEpSxHxiV9tHc7040k+CXHzLwsiEr1IQAAAAAAAAAAAAAAAAAAAAAAAAAAAAAAAAAAAAAAAAAAAAAAAAAAAAAAAAAAAAAAAAAAAAVmVlawyjqXP8Aw3damr2h4ZdjvLZPjOk+Zbqp94eBcycM+VcmPq82/wATtNcK1O7ivZksSf4iwNnbhOEqT5p8PI4YwtOCJhRGSaFcGF98I+ZSZXevmCuDC8THovTYrnxEy+km+XHy4mM48DDhOIfXZ4TfqnEUT+kuwcP6eXbmMxMNpaaVeXb3aFKUn4xaXzOtVuqVJZnJL4pnVO3otbs3JnEUzP5PVOF9IaacTVLufDeVrFuP4aZlY+mfw31G543LVsv8zwaG42gt6f8ALXpH8jxzhHTu9exPeHoXAOmlu3j5kRLu1qxTH8MRDJC4NH2C03T2pyj6ap1cuMW/6SKXet3Ffgnux8OfzPk0fDLdv+CmIfXhMUpWPTpRpx3YJRS6JJL5Ij8pOTy3l/mRECRynyAAAAAQkAV2myFhjCBXaZWDAK5lGZXDBkpmTdPsuMYGSm6fZjuUboxVEYlnVmGHHKw+K/JmUzxvn/kyq3VNymO0ug1UtmNfoablM01RnLxnnPkuqzVNVMZpn9HmbbnY+VpOV9aRzRk81EuLg3zfk/yLD0bVVUSo1X7S7L70dMMLzSiFJkwyVwYXwYDGSmDC+DAMlMGF8GAZKYML4MAyUwYXwYBkpMLU2d2KY8n1dj5K4FN27FXpEu/Y2c7yvC3gsuckn/S+bOGtWVKEpv3V+Z6X044N8u1G6O7uVLBpbEU0xEekPph7h0mwjYWlK3jyhBLz8ynLqu61WVR+8wkG4OoAAAAAAAAAAAAAAAAAAAAAAAAAAAAAAAAAAAAAAAAAAAAAAAAAAAAAAAAAAAAAAAAAAAARKQBSHQeb+SJvV7oegIy0eraRb6pQ9BcLMc5+J3La6nbz36fPB45PTGv2lEdMq/Z7Jkyg3/y50nuZuf7euTymx0mzHd9tjo9bn+KcPScmGxp7BaNDGaKn59TglrV2/fwdG0/SexT6uX0fI9mj0ifydiij6ybW8ttmdMtnmlbxj8M/U6VTULifam2fLZ0FuntFNP6Q+immPSI/RfBhI4UowWIpJLlhJHRcm+bz8SMJwkcmD4IwkGQAAAAAAAAAAAAAAAAAAAAAEJAFcPm1+gpuUzRVETl9SJhxVKcakXCazFrDT4pruPqMnF5XBrkeN848gVWpmq3GaZdHroxOJju2YvWIqjbMZiXn/NvTuKs1Wo7+Xnfaz+H0ouV1pqzHnKn3d+4TrTdcTxTr8+kv3PJTL7OI8LrtTiqJy+TCgqlOdKThNOMlzT4NeZNIyUllPKIyZSnDiyZyVyZWwYMjJXJlbBgyMlckpIgyZLWLE1VRTjy9q5C5c+TREzHmHSennLU11bq48eHsdm3iMez0X/DbZ3C/tGvHi+FLPNLr8yC69f5+wg+HvF4WIS9CEHAAAAAAAAAAAAAAAAAAAAAAAAAAAAAAAAAAAAAAAAAAAAAAAAAAAAAAAAAAAAAAAAAAAAAAAAAAAAAAAAAAAAAAAAAAAAAAAAAAAAAAAAAAAAAAAACJhIAhGFkAOF41yvavROYjc8x4901u0Zqp/hez7Va6M9piMILrux+n6um6kNyp0lHg898sczcWeqVrbhF5j3Pj8jWu/p6qZxNMwpte98Y5Rs3Y7UxEuhcZ6WVU5qpnLzzrP8PNSsW5UF6xTXVcGl5dSa2ut0K2FP2H9ToG02vu1fCL1E42z+j5JpmPPZWFWlUpScakXFrnlNfmzfxmpLKefzKbTC2Y90YcOT7Iily3LfBKr9yIiO0S+Ph/DqrtUU058va+UuXKbNEdvxLD2O2YqazcqUli3pvM39/HurxNJqeoK1p4Xbly8PFnJ8F4TTaoimI74ckQmHsq3oQoU406a3YxWEvBFX1JucnKXFsJB2DjAAAAAAAAAAAAAAAAAAAAAAAAAAAAAAAAAAAAAAAAAAAAAAAAAAAAAAAAAAAAAAAAAAAAAAAAAAAAAAAAAAAAAAAAAAAAAAAAAAAAAAAAAAAAAAAAAAAAAIwkAVwiafddDGAfHqeG264xNNP6Q61xHpvaue0O44RhpL/RbK+ju3NKNT4YfzWGdujdVaPYk0eV6/pPt/hnLgtRyHeicREvcUTj2V9efw00ms8006PguP1NzS125j2vaOl8mclxaiKqo/E7pFKYSsTSdJt9MoRt7eO7FLj3yfezS3FzOvNzm8t/kEg3J1QAAAAAAAAAAAAAAAAAAAAAAAAAAAAAAAAAAAAAAAAAAAAAAAAAAAAAAAAAAAAAAAAAAAAAAAAAAAAAAAAAAAAAAAAAAAAAAAAAAAAAAAAAAAAAAAAAAAAAAAAAAAAAAAAAAAAAAAAAAAAAAAAAAAAAAAAAAAAAAAAAAAAAAAAAAAAAAAAAAAAAAAAAAAAAAAAAAAAAAAAAAAAAAAAAAAAAAAAAAAAAAAAAAAAAAAAAAAAAAAAAAAAAAAAAAAAAAAAAAAAAAAAAAAAAAAAAAAAAAAAAAAAAAAAAAAAAAAAAAAAAAAAAAAD/2Q==;" vertex="1" parent="1">
          <mxGeometry x="120" y="-150" width="56" height="56" as="geometry" />
        </mxCell>
        <mxCell id="_ifwmtqrcZcbokNP98M1-4" value="Prometheus" style="shape=image;verticalLabelPosition=bottom;labelBackgroundColor=default;verticalAlign=top;aspect=fixed;imageAspect=0;image=data:image/png,iVBORw0KGgoAAAANSUhEUgAAAOEAAADgCAMAAADCMfHtAAAAk1BMVEXmUiz////mTiblRhX//fzqdl3lShvlSh/wno/mUCnkPwDlTSPkPQDlSBrlRRTrfGXkQgv2ycHpak786+j+9vT98e/64Nv3zsb0vLLshG/tjnvqclj419HvmYjxqp3zt6zshnL53Nf2y8PoYEDukH7vmornXTz0urDyrJ/nVzLpa0/1wrjqeGDoXz7oZUbwpJXjKQAjBBblAAAP6klEQVR4nN1d10LjPNOWCzGWSxRSSCNlyS6YQPLf/9X97nGRbI1GDnm/52APdhfjx5Kmz4gY/+sgd/gds+lxstzvnt9OCd7+Xnf78+txOrvDrzYGZjjf7p/H/xzKWGgFTgLPS/4cBVbIGPMuq+tyOzTRoRhOz88bRsPA8Vwigut6TsCoM77+mQ/0GsYwDBf78Yhajimk1iDqOaFP1svpAK9i6Gc4X65GLPAkyVVpBpScJgNsWa0MF7t3qsCuZOmEdPOhe8PqYzjdRXQkPnSSMAP/60PrSmpiaC9fNNArSLLxq57XSqCF4eLELFm5IgWPeVddu1UDw8kLVT97IriOvzri383AM7T3bqh1+W7w6GXy6wztnRVoOn08mCw6/ypD+8oC4CsHDuwH3BDNEcFwPwLyc9nX8hNIMf6hH5xgVWY4IRZwf3rm1jDe4ZvaZZvF/RkuXhj0VUcb2zBeGZhgDNNfqxsBSgztNx8sP53v5CcPinrFYft7Mpx40MMUL8Ml/dGRGsEY4YviVoUznI2pwlkK0m02pcoM4616vQ/DiaWy0Vimu7ehOkNCgn8qywhkaB8UFjAWo+P886AYxsv4OTTDows/gQn83Iz+g2MYn8YNWKiCGO58NRPNOeUP2Copiyq8EKr/AQztser70cITwkiaHC5U4MgznCru0Pi7r8qHAO08LsInexCGEyURk4LdNtaTDk/LiSBhOVmGO1/5hVzv9phPdZVfgcm22hmuESKilDMxFmhRk8L1PzQzfMKcn/BP5UkdIXAQqLS8kWFov6vKmBR+VYU9ix8F487W+hjOIlSgyY2qD1sI9YXzBaNorUQvDGU4N3HyzzvUHvdPwMM6LYFSKHjSw3DuIQW8Uz8xn/wj7azg7v9oo4MhdgXjT72sP5C7TWP3cQ7XR47MKvYwnLtoFW01gp5j3qlm89gtgz979I1laEd4G6RpKvNCNezcKWXFCPrFTTfDi4ZwfcsZcFvnzUwOFHdt+59+4r23NMMNSg8W79C0sNqWG03sTIU4YwLWp/q7GB6glkzEi/GzY+OxLVnjpcq7vbRy8JftN5dkeIXakPGbfgStg8tawZXmfvRTV0H5QPjdZriY4RkuvVlsAF2aO5u1XJ2GrMndR+UT4YadzpSQ4ULBXUqdmqZ08tv+qlnbkPTI+UsIzKj1GyQY2iq/MEhCYbOG+2C1H36typo8VmxE6l6HM1ZguFE5FpknuK1JEvdf++HT6v4I8nj9BqF62Q7M8KoU9jOzb3moHimTZ1m9VNiw3LlaY3Rvh7ThM9yqxSzMzBSeVRfR4ank5c1CMwvDa4cJcLiOMI7KZWg7amfC/Mp+vmqAjXhh6so3sIocLy4e7gktVC5DNQOqXMOaTq/FMEqsyt9QRgCQsVRh+o3HcKkaLirSE9U0YVvhJyjD++ZL+XeKG6cAFWhFDsO5cjzMecsfUYneM374tmA4uklB1expjkLrSDBUUhTZ65Znrgwrue/831vQqVitSwUHsYqQn5hqMzyrhzRvZ66UNZ7Auym2aXj7KwUnvw6fu09bDGfQEosKbkeh3KaByPLP5EpNW34h3W2TG7dpMTyo+4Suc3tMwZAvaIxCmo6qxsgem7dhvOqiJsMjYqt4FfOwUAdMQDD2s5J/rgUAZtjcmzviiLUmw3fETgkqKilfD09oE2cZDFozRVbYoInzt5fhEmNYVHfkkbVIN5D8h3o8XEOKmCNs6gxVzbUUrlt9UvayIjVsZNa31wiViQLi0uDsmTrDK+asl/o+xSV5WbfDN018iVHD6zljKxkIbTkZNYYz1C5htbBh6gw5z2KGScgtbJbIAhNQbVSsQB7DN1T0sC4205hhK85WQRLjbsVwUHIge4tmeLbKEGdUNKyXhEDXJk1lUTuGgz6JLTOxyhC5hPUTkGiD5jGrIXaxarIpwyu6HqW5iBWGOIXrmi0CZSkUF3ZYRD1qwIRrUjR9jArDK2oJm0LFtlq6oAHT5SnoKdb+bm6mG0Mb57zQpgHqunkgVISLy7UH1thkSSP2dWOIs3vbQcN3pydFO/aaqcUU/BQqBH7tY98Y4lRRO+C08XuqQU8eX5koJRKrqEv1kqFajXmJtlAZ9yUvryPKlURoF6Ne31Iy/EbJMI7zOe6rBN0HVEAdu4i1810wRMbyrLbv2VtdNwnb6jAFzngkDUujYIj8boKIWie2TBAdQ5oepK4wCoY4OdOoCpLD1BfFqdGFtl6lJIwU3xP1RH5guwczX1iahhMKpLancoYnXPyAkyOUgC/0rfAV7zdNmzPELaEnWydYRyDuLcB2NVZ8/YzhK+6bgevnM3yJgzh/sbLm5pdlDFHZyY6QYTcO4jqRI1Zh3NRXxhBXfa0kSWNcO9p8kYmoil+TMkRKUo66l8K5Y3Mjd1UlIZIyRKp7qtj+uOgo9TkjE1E3Vz9l+IPaEu3wliRmR/G/oX2o0iNPGCLTWo5aX2CMLlNPtcytgPtTYYjcEZD2DnmgcxiFP5cwRBo0bJA5SKjikwSF/EsY4qxuV+Qh4IBsxrwlGQj6UNfTFdqA7h8qnESCNnMD+RYkCLTFMgje+R1E0GCdAVJaywQdZeaHk/BAZzDy8B/BGqVEEE5CA92MmZumBBsy4NWPagFaIeaihmB9Q1OibUUJaNs7V9RE1GolC1XXqRdoJzivnCDYbzWQOtQQ3M+tGlKrSFZhyMmQaQE68p27BATrTXcVI+AYotu+swNEZsiM5AOvYea4kinSdhCVV6KBP4dZ4p3gRsa0y5q0AenTJaCJi02wARF+UacGqJbTV5CW65A99kCPBmJ4wc8mSHPMBH2gOZ1bWqBhvkSaMCLo7S6sAsYBX7CQq3xywJrwqvHgHuBrTfNsNxljGQ5ktqGLvklu1BDgNIo2BnKf0M4Tye0tghdZwzj52NRMyjDZXuQf+jnClgoMtIzqSTO3JEI/h1dhiMZOxyiA1PTWwFA599QFdBwqQWpRanhOV8uBKsSDeiDQxrCz2FkN6JqhFBlDDbt0gKCwnpFg2s6hfv9Ch7onBUPFkSJ19FQDg4Fuu8iQ9pEDbBpPfCmH5kX8EPusyXUf0nZmZtNIB8+9t/PbhbGAO1Ou1ceBAt+ecb1RSL3xbiv9ypldupL972mzvX3cr//RsLWYWsVpu/vK9YKQktXna2ogSkcl0rIygH9Y9qHNXq9PzcUMlMsVWqj3I8TkmB8dcnIJ5POdqT1J5ENa9ZqLxfIUVRezr25dHmWIOiFHo/W+cWGSvNeR9gIQ+UH37R6eeDE3Vr6Y2pyoz3SJTCek76f9sW0QApLDqZ4mS3nVwxcni4/1jx/TDNRKMFuP803HYtb39VVg7QJ0ZRZrAyTXuINYUsy2sQD6P4VR1O0n+f7X27lrxwMm9aQuAYE4YvyW/gL2VkPUbdt3nCF9IUHyAwQS01KsBdYKQNVB1opIDEhUf6iqBHkcIQsyzhhCDFPn1xcRUr+QJf4ILKjVfRKHB2QJ81omAstEiocV3QeghHXmthJg7SXVamJDMQF5xpnUIMC43QARCwBAfmM+aoUU8x1kodHEBgM28iE3UAg4Ufd7wgZYvZV7CjHDEyyuZQomPw0PYF1M3mVM4BOorF/ap3tgxUHuzxKFFIE+VxACcIVh3lCX1HlDGf6OPP0BJjqLIpGEIThV5wxVYdKBEzSEWuQaEobw+Csbpra7A2dwIqOoL0gYKuTq7n0U4Zma8maUtO8JPlHXJQPVmPAxg79hWfeaMlQoMfWGKoXi4h3+gmWJSMpQpT/FGqomkYMnhVxbmbZNGSoNMaBDpO+5AM+GJ7dxuEWXrFL/e/B0H7woXZrwWWcICJpWYN4HSpm2m3+QMcQWCj8cKhO/8okD6DEND4bKMIOcIbqx+MFQGQiUMwQ6+o+Oav6hmN6C78F5JITnNkMd5ZyPg+qslXJOFK4n/7FQK3ktGcJdKHd0J4AZ1oJlJUMb6p8MUpLIBdRqrte+3CbSQbvh7scQKiLqueobQ+hIxodl2AgjVWZfAsM1D8vQqodYKgyBkYJHZVidDN9gCOyeflSGzflaVYag9OPDMmxOVqvNggbNHnhQhq0RaTWGoHu6HpNh9XplDkOQOH1MhmErVl1nCMl+PCRDTkqlcTcCoEb+IRlySu8aDG1AldsDMuRVYzdv8PiQpviIDHkZ+NY9MxfpqujHYzjiTT9oMZTWGI/HkDOm3+Dd9/Qm6XE+HkN+NRPnzi7JaXcPx1CQmeYwlLz8MGZo3wdyws8N+GXTvLvzTnL71LTuBKm3IVQwDZV7/yHi0tNfgyOadcRlqHJT7i+DL0eFDPOeh/8SxKUTgrtkn/5jQX4m7oQQMFS68Pj30HXlsejG4//UUXTdjtoX4b3cH2rd1J6DglqituN2tw6GxkklaeodnjG4Kk2p9DvmgncxNDYKNRAhsqtbZfwV66537WBoR/APih1WozAPKOgZa9jB0JjD54t0XHcgBfhIz747lzoZGgsGpYid3gZuU/d++koIOxnC710t54SrATwcyiS9U0e6GRqvUIq47rYJUH6bXv+v62FoTIAUceN4gFdzuyOJ3o8+hlCKqOkKwEy7a8k0t/QyhFLEtNTAqiVMR+pX9TOMzyJEwGE6aUGet0nkjrwEQ2MLothpJHZCPhqdfMlIcnaTDENjMQIoYuWTaEOuQHJeZEvppRga8wgg5JiiOF0BbNJQPpQpx9CwvwBCQG2fngEpJgqYZCjJ0DDWgAxQpNCMAagEcX3IcDFphsZeXt54X/2Pa2A6kn66aR0hT5ZnaGxH0oex1+BvYu5Jy7LgAjMMAQyN2Ze02Sgv6lIAhDWFei8QhoZxld6pHgH0fp2p9GNbt7H3AsbQ2JqyIt2l0uLgJC1kwi+46wJkaNgr6e/NNlJa45XIfjTTV4kgQBkaxp+R/Bv97bWsFt/SXyy8KOlZOEPDPkifRoc9d77VcUVl5bNHFUNACgzj0xjJC1X6LZIN8/2FyfJz2ZNq8ECJoWF8Mmkj0gzpeN8UrPb288sP5HUgAYtQLENjfvDl/Q0vYOzltFtOttvt6+TjeninDOCuOGynzE+dYSwjNhRUrOk5QRgyFlqBwx29KPw8/ho1xVedYXwcL2zwljePrpCTRjAMY102MEfPH6Pb4nEM43XcSMt7MBz/oKHtH8swPo8HKu/5yMO1wmcts9PwDGO5ujOlFZskHPr+oWmmgQ6GMf6MAdqtD2bITkc972VoY5haKBQSkhPSs/zvs86RFNoYxph+XmiA2a6uF7LvpeYZ9joZxpgvx4yp1RvEho+3nugf0a+ZYYLtdUMFI6OFaxebdW3jVQ8GYGikI6MPEWOB01d45HqOxdjPaTncvJthGKaYbZd/nyLKWGKJemZZmOu6bmykjoKQUfYzvp4Xw466GZBhBnt6nHx8vq1Xm8tPFJEoit5fnlbr58/l6+Iu01D/H+ZYErBPZdp6AAAAAElFTkSuQmCC;" vertex="1" parent="1">
          <mxGeometry x="40" y="-146" width="56.25" height="56" as="geometry" />
        </mxCell>
        <mxCell id="_ifwmtqrcZcbokNP98M1-5" value="Splunk logs" style="shape=image;verticalLabelPosition=bottom;labelBackgroundColor=default;verticalAlign=top;aspect=fixed;imageAspect=0;image=data:image/png,iVBORw0KGgoAAAANSUhEUgAAAOEAAADhCAMAAAAJbSJIAAAAvVBMVEX///8ODxMAAAAICQ4hIiOAgIB0dHWzs7MNDhO7u7v///7x8fGur69kZGRpaWnp6ena2tkuLjJzrzaYmJgAAAXg4OAAAAiioqL4+PjGxsbPz89bW1yPvGhvri9MTE3u7u6QkJCBtFFGRkdlqhoyMjLe7NPLy8unp6caGho3ODrW1taGhoZVVVZ6enrl7d0oJyzW58aIuVo/Pz9ZpQCVv3Pi7Nj0+u+jx4MeHyF0skGixn1jpR19sUWItVWSumrfykZdAAAHWklEQVR4nO2aC3uiOBhGIVgFvFdQ1Fat2tZ6aUdne9m57P//WZOQBBIEteBOt7PveTrzVIhJThKSL6GGAQAAAAAAAAAAAAAAAAAAAAAAAAAAAAAAAAAAAAAAAAAAAAAAAAAAAAAA+LQ0Wz6j1Txjnj6nVT1jnvlpEE75fFkGIktSOV+eBSgTk0EuzphnyeJ5OmfMMz8wzAMMfy8wzMNxw8Bo9fpnLPEQH9SHtYtK7YwL1CE+yLBOBWu/pxc/xrDZq9VXzc4Zy8zmg/pwWPPLveUZy8zmQwxdY9DoT35PF36UoWH088T6vlO7r/WbQcbtoEXvVwZ6xF/UcNynZTotrcw0wyr3ErhGDvzNmwjpFw0xSfWHdcawxz4M6jLkH9WUr2mG43Wdf0Nr37K4GFa4yvOsr332ofMg8vTK/kHDDtm0VMHHd/sFZUJ4vqZpEfIWblwqovgNnbxG8X16JS5bM2zKRtAMn8TFsGGqMonPqk26pmmLMuNRkDR0aU1ogqkTd93NzZf39WQwJbap4JEgNGS/27TsAeG/2rINouokDEUbaIZtUWFhaPJMW8aat5ksmAyzDGnxNk3mRS3nGlfXs+3tOwRpYTYvNxwxMvOKqP1mSevC78n6kPUBQ/uooW2SwU5vVOVZTho2xfAh91GeV9eXl6Gje1pHVkRhZFi5czp0QA4NxdAbWRYdmsNJZ0KfRam4KWJIh4HpiUaLRr9J/FTDaqnLPyvLAzO8vJ7dnNqPUz2L5bypGNpmlwqu+aVxncjqOIUM2QVSdvzmoFeKstykGk5FERMlzy0zvBT9eJwq7xirnbheiWqjHMNsZCeUgmKGZCpTNWSWiyDFsCGflThH17i9+coV+fN4bKj6vK+6oyxDMlWuruV0cl/IkOziFDtPG6aa4Yok2zhUNG63s2vF8TAtnolFxlmGymIl2oM+nvNihkqejpx+nD3De8Lv1PerfXulO7pu5rQTTfJD/bo0JA3t8khdE3Ia2kQdMAFRk6iGd2R/EAlYP159lY5X3DHD0Hjohg1FM9KiJznTkDstdU0a1vIbqjM/ZSemul7C0Gfqdqogf/ge/5L9+HX7bGQ/kL1o6JTU8ViRFdYjVV+uLZsihlpYPSRphv1gEZqTeUaozPrsOXLk/ZjBXJRre+pBs+jDbqIFq6YVD+rchtrmrpFq2OBBgUey9gJu6Pj4LRqrtB8zerFqymjFUh46GdM0EqnnvAbdh7MbdhRDOji7vEaJCTDhSP9/eZ1dX3PHrMYw/GjZNcmDrF9Frb2CCBDCFTG3ofo4pBrSj5baswd5eRWK2StjEIeJRLavNJwk0o748mW9/buGpMPCYfbL4Igf03r+OzTM7EPKRNk+3R00FDNfsVF6gmGfz9q2pSdO2IUP48srfxYPGhpLj0SKS9VwpacLRA289YmGXk5DJ5pjH7Irzuaal9fvMk59ORjAVUdypHZN1TAx04zl81FOMbT3DZ/y9qFDU4txmhLScDvm9+37TPj9uD0Wok5EJ/AFOWO1WKqL9gk7YJLfkMY0fNdNUg/WWJj2+C2O3U7Z93fUAC6K2vQxci8vtzINteqrIdB7DWXgnXrw5qoxzeznl9D4qCKfJ22r7SqG+vG5iEsty0gaBvILapg3KGRoPIiJmyRPD6nNc9x/NyfsoTgVWf1AMVyrKaKOmuwZGtotQbmYodzKkIWmR/89y73F5eznrbyYThD+cPrCsBSouye1T8pyr9VMMeR1s7w4eSvKJJ9h3M7KbMP675/E3ilTj3ERB6PiIQu7LTL0zDitIwtcqb7CsK7dZIWOS15BwzjTSSSo7g1/nHCO0SKkLE6yq28sd5uXpZxizGVs2Bfd1C0ZKYbxJqUc9nDgEC/KI69hsOBzg60coG7f0X+UHaGRWscPjKBfClc0alhVDIkl7/srGfjIyE43HIv1i4V+03J5tGBftQoayrkqim3c6KyN+mVv7GPCgckOutsWj+ZFF8YrPm1Een/RfiOifhaRJ/uJ9xbynMq27S4hnsXWnV2B9ZAjl+luSc4X1DDc856wOhjstE7MD1Z0bs+PfaKobRyOteh+uIsMUg0DudOU5+N0YZ3nj9o4brRARWcfV3S/+yzvHqcnuoZWiv0Q+UjHu6cm21zxKtu0nHa8uUu+exo/hSfwPCUdq6toO1mgD9mpt23SQTHqiYbdbo/GZxrVFTvMp31k0VzIUNZf2R+6F+xwmuLRhOoRy97ftQUyL5bViO17TJEk/NpYvplRXiWxUwxO2LRpf9fm0I/zXrTou4/vfsPmOptRe2GVdvVevKPWdsDjybptmk+jCz3AabY4SsQR3Dd2dEqeDye8nwacO55EpF9qkaCv5SKTqG8qN6vEDirXK8Qg0APQvT1+cHD3dSir/yhZpxh/DjD8/MDw8wPDzw8MPz8w/PzEfxP1p6L8XdsfSn/YYNRPeH8HAAAAAAAAAAAAAAAAAAAAAAAAAAAAAAAAAAAAAAAAAAAAAAAAAAAAAAAAAAAAAPj/8AuB1IOn3Q6aZwAAAABJRU5ErkJggg==;" vertex="1" parent="1">
          <mxGeometry x="200" y="-149.5" width="63" height="63" as="geometry" />
        </mxCell>
        <mxCell id="_ifwmtqrcZcbokNP98M1-6" value="Cache Redis" style="image;sketch=0;aspect=fixed;html=1;points=[];align=center;fontSize=12;image=img/lib/mscae/Cache_Redis_Product.svg;" vertex="1" parent="1">
          <mxGeometry x="290" y="-132" width="50" height="42" as="geometry" />
        </mxCell>
      </root>
    </mxGraphModel>
  </diagram>
</mxfile>
